<svg xmlns="http://www.w3.org/2000/svg" viewBox="0 0 101.9 92.9"><path d="M51.9 51.1h-.2c-7.5 0-13.6 6.1-13.6 13.6v10.9h27.5V64.7c-.1-7.5-6.2-13.6-13.7-13.6zm10.6 21.6H41v-7.9c0-5.9 4.8-10.6 10.6-10.6h.2c5.9 0 10.6 4.8 10.6 10.6v7.9z"/><path d="M94.8 84.8H83.6V44.4h.1c2.9 0 5.5-1.5 7-3.9l.1-.1c1.1-1.9 1.5-4.1 1-6.2-.5-2.1-1.8-3.9-3.7-5L54.6 8.8c-1.3-.8-2.7-1.2-4.2-1.2h-.1l-.1 1.5-.1-1.5H50c-1.5 0-3 .4-4.2 1.2L27.3 20.1V6.6c0-.8-.7-1.5-1.5-1.5s-1.5.7-1.5 1.5V22l-11.9 7.2c-1.9 1.1-3.2 2.9-3.7 5s-.2 4.3 1 6.2l.1.1c1.5 2.5 4.1 3.9 7 3.9.3 0 .7 0 1-.1v40.4H7.1c-.8 0-1.5.7-1.5 1.5s.7 1.5 1.5 1.5h87.7c.8 0 1.5-.7 1.5-1.5s-.7-1.4-1.5-1.4zM12.3 38.9l-.1-.1c-.7-1.2-.9-2.6-.6-3.9.3-1.3 1.2-2.5 2.3-3.2l33.4-20.3c.8-.5 1.7-.7 2.8-.7h.3c1 0 1.9.3 2.7.7l33.4 20.3c1.2.7 2 1.9 2.3 3.2.3 1.3.1 2.7-.6 3.9l-.1.1c-.9 1.6-2.6 2.5-4.4 2.5-.6 0-1.1-.1-1.6-.3L50.7 21.9l-.2.1-.2-.1-30.9 18.8c-.8.5-1.7.8-2.7.8-1.8-.1-3.5-1-4.4-2.6zm8.4 45.9v-41l29.7-18.2 29 17.7c.4.2.8.4 1.1.6v41H20.7z"/></svg>