<?xml version="1.0" encoding="utf-8"?>
<!-- Generator: Adobe Illustrator 17.1.0, SVG Export Plug-In . SVG Version: 6.00 Build 0)  -->
<!DOCTYPE svg PUBLIC "-//W3C//DTD SVG 1.1//EN" "http://www.w3.org/Graphics/SVG/1.1/DTD/svg11.dtd">
<svg version="1.1" id="Layer_1" xmlns="http://www.w3.org/2000/svg" xmlns:xlink="http://www.w3.org/1999/xlink" x="0px" y="0px"
	 viewBox="0 0 85.6 49.8" enable-background="new 0 0 85.6 49.8" xml:space="preserve">
<path d="M77.2,22.9L57.8,5.1c-1-0.9-2.6-0.9-3.5,0.2c-0.9,1-0.9,2.6,0.2,3.5l14.8,13.6H10.1c-1.4,0-2.5,1.1-2.5,2.5s1.1,2.5,2.5,2.5
	H69L54.4,41c-1,0.9-1.1,2.5-0.1,3.5c0.5,0.5,1.2,0.8,1.8,0.8c0.6,0,1.2-0.2,1.7-0.7l19.4-18.1c0.5-0.5,0.8-1.1,0.8-1.8
	S77.7,23.4,77.2,22.9z"/>
</svg>
