<?xml version="1.0" encoding="utf-8"?>
<!-- Generator: Adobe Illustrator 17.1.0, SVG Export Plug-In . SVG Version: 6.00 Build 0)  -->
<!DOCTYPE svg PUBLIC "-//W3C//DTD SVG 1.1//EN" "http://www.w3.org/Graphics/SVG/1.1/DTD/svg11.dtd">
<svg version="1.1" id="Layer_1" xmlns="http://www.w3.org/2000/svg" xmlns:xlink="http://www.w3.org/1999/xlink" x="0px" y="0px"
	 viewBox="0 0 78.1 99.2" enable-background="new 0 0 78.1 99.2" xml:space="preserve">
<g>
	<path d="M10.2,35.9l7.3,55.8h45.3l4.3-42.1c0.1-0.2,0.1-0.4,0.1-0.6c0-0.1,0-0.2,0-0.2l1.3-12.8H10.2z M64.1,39.9l-0.7,7H15.7
		l-0.9-7H64.1z M59.2,87.7H21.1L16.2,51h46.7L59.2,87.7z"/>
	<path d="M61.8,16H44.3c0.4-0.8,0.6-1.7,0.6-2.6c0-3.2-2.6-5.9-5.9-5.9s-5.9,2.6-5.9,5.9c0,0.9,0.2,1.8,0.6,2.6H16.3
		c-5.7,0-10.4,4.7-10.4,10.4c0,1.1,0.9,2,2,2s2-0.9,2-2c0-3.5,2.9-6.4,6.4-6.4h45.5c3.5,0,6.4,2.9,6.4,6.4c0,1.1,0.9,2,2,2
		s2-0.9,2-2C72.2,20.6,67.5,16,61.8,16z M39.1,11.5c1,0,1.9,0.8,1.9,1.9s-0.8,1.9-1.9,1.9s-1.9-0.8-1.9-1.9S38,11.5,39.1,11.5z"/>
</g>
</svg>
