<?xml version="1.0" encoding="utf-8"?>
<!-- Generator: Adobe Illustrator 17.1.0, SVG Export Plug-In . SVG Version: 6.00 Build 0)  -->
<!DOCTYPE svg PUBLIC "-//W3C//DTD SVG 1.1//EN" "http://www.w3.org/Graphics/SVG/1.1/DTD/svg11.dtd">
<svg version="1.1" id="Layer_1" xmlns="http://www.w3.org/2000/svg" xmlns:xlink="http://www.w3.org/1999/xlink" x="0px" y="0px"
	 viewBox="0 0 152.3 84.4" enable-background="new 0 0 152.3 84.4" xml:space="preserve">
<g>
	<path d="M142.8,46.2c-12.6-2.4-28.3-27.6-31.9-40.3c-0.3-1.1-1.3-1.8-2.4-1.8H81.3c-1.2,0-2.2,0.9-2.5,2.1L68.1,65.7
		c-0.1,0.7,0.1,1.5,0.5,2c0.5,0.6,1.2,0.9,1.9,0.9H97c1.4,0,2.5-1.1,2.5-2.5s-1.1-2.5-2.5-2.5H73.5l9.9-54.6h23.3
		c4.6,13.6,19.2,37,33.2,41.5l0,13.1h-2.3c-1.4,0-2.5,1.1-2.5,2.5s1.1,2.5,2.5,2.5h4.8c1.4,0,2.5-1.1,2.5-2.5l0-17.5
		C144.9,47.5,144,46.5,142.8,46.2z"/>
	<path d="M55.3,13.1H10c-1.4,0-2.5,1.1-2.5,2.5s1.1,2.5,2.5,2.5h45.4c1.4,0,2.5-1.1,2.5-2.5S56.7,13.1,55.3,13.1z"/>
	<path d="M52.2,28.3H17.6c-1.4,0-2.5,1.1-2.5,2.5s1.1,2.5,2.5,2.5h34.6c1.4,0,2.5-1.1,2.5-2.5S53.6,28.3,52.2,28.3z"/>
	<path d="M49.5,43.6H25.6c-1.4,0-2.5,1.1-2.5,2.5s1.1,2.5,2.5,2.5h23.9c1.4,0,2.5-1.1,2.5-2.5S50.8,43.6,49.5,43.6z"/>
	<path d="M117,52.9c-7.5,0-13.6,6.1-13.6,13.6s6.1,13.6,13.6,13.6s13.6-6.1,13.6-13.6S124.6,52.9,117,52.9z M117,75.2
		c-4.8,0-8.6-3.9-8.6-8.6c0-4.8,3.9-8.6,8.6-8.6c4.8,0,8.6,3.9,8.6,8.6C125.7,71.3,121.8,75.2,117,75.2z"/>
</g>
</svg>
