<svg xmlns="http://www.w3.org/2000/svg" viewBox="0 0 103.6 96.2"><path d="M95.3 23.6c.1-1.2-.4-2.4-1.2-3.4l-10.2-11c-.9-1-2.1-1.5-3.4-1.5-1.2 0-2.3.4-3.2 1.2L65.9 19.4 13.4 67.5c-.6.6-1.1 1.3-1.3 2.2L8.4 82.6c-.4 1.4-.1 2.9.8 4.1.9 1.2 2.3 1.9 3.7 1.9h.6l13.8-1.9c1-.1 1.8-.5 2.5-1.2l52.4-48.1 11.4-10.5c1.1-.9 1.6-2 1.7-3.3zm-68 58.9c-.1.1-.2.2-.4.2L13 84.5c-.3 0-.6-.2-.6-.3-.1-.1-.2-.3-.1-.6l3.6-12.9c0-.1.1-.2.2-.3l51-46.8 11.1 12.1-50.9 46.8zm63.8-58.6l-10 9.1-11-12 10-9.1c.2-.1.3-.2.5-.2.1 0 .3 0 .5.2l10 11.1c.2.2.2.4.2.5 0 0 0 .2-.2.4z"/></svg>