<?xml version="1.0" encoding="utf-8"?>
<!-- Generator: Adobe Illustrator 21.1.0, SVG Export Plug-In . SVG Version: 6.00 Build 0)  -->
<svg version="1.1" id="Layer_1" xmlns="http://www.w3.org/2000/svg" xmlns:xlink="http://www.w3.org/1999/xlink" x="0px" y="0px"
	 viewBox="0 0 22.8 23.5" style="enable-background:new 0 0 22.8 23.5;" xml:space="preserve">
<style type="text/css">
	.st0{fill:#030104;}
</style>
<g>
	<g>
		<path class="st0" d="M13.3,17c0,0-0.6,0.2-1,0.2c-0.3,0-0.4-0.1-0.4-0.1c-0.2-0.1-0.5-0.3,0.1-1.4l1-2c0.6-1.2,0.7-2.3,0.2-3.2
			c-0.4-0.7-1-1.2-1.9-1.4C11,9,10.6,9,10.3,9c-1.8,0-3.1,1.1-3.1,1.1c-0.2,0.2-0.2,0.4-0.1,0.6C7.2,11,7.4,11.1,7.7,11
			c0,0,0.6-0.2,1-0.2c0.3,0,0.4,0.1,0.4,0.1c0.2,0.1,0.5,0.3-0.1,1.4l-1,2c-0.6,1.2-0.7,2.3-0.2,3.2c0.4,0.7,1,1.2,1.9,1.4
			c0.3,0.1,0.6,0.1,1,0.1c1.9,0,3.1-1.1,3.1-1.1c0.2-0.2,0.2-0.4,0.1-0.6C13.8,17,13.6,17,13.3,17z"/>
		<circle class="st0" cx="12.5" cy="5.5" r="2.5"/>
	</g>
</g>
</svg>
