<svg xmlns="http://www.w3.org/2000/svg" viewBox="0 0 595.3 841.9"><path fill="#231F20" d="M595.3 196.9c0-40.9-32.7-73.6-73.6-73.6H73.6C32.7 123.3 0 156 0 196.9V645c0 40.9 32.7 73.6 73.6 73.6h448.2c40.9 0 73.6-32.7 73.6-73.6l-.1-448.1zm-297 99.4c68.1 0 124 55.9 124 124s-55.9 124-124 124-124-55.9-124-124 55.9-124 124-124zm246.6-24.5c0 13.6-10.9 24.5-24.5 24.5h-74.9c-13.6 0-24.5-10.9-24.5-24.5v-73.6c0-13.6 10.9-24.5 24.5-24.5h74.9c13.6 0 24.5 10.9 24.5 24.5v73.6zm-23.2 396.4H76.3c-13.6 0-25.9-12.3-25.9-25.9V371.2h81.7c-4.1 15-6.8 31.3-6.8 49 0 46.3 17.7 89.9 50.4 122.6s76.3 50.4 122.6 50.4 89.9-17.7 122.6-50.4 50.4-76.3 50.4-122.6c0-16.3-2.7-34.1-6.8-49h80.4v271.1c0 13.6-9.6 25.9-23.2 25.9z"/></svg>