<?xml version="1.0" encoding="utf-8"?>
<!-- Generator: Adobe Illustrator 17.1.0, SVG Export Plug-In . SVG Version: 6.00 Build 0)  -->
<!DOCTYPE svg PUBLIC "-//W3C//DTD SVG 1.1//EN" "http://www.w3.org/Graphics/SVG/1.1/DTD/svg11.dtd">
<svg version="1.1" id="Слой_2" xmlns="http://www.w3.org/2000/svg" xmlns:xlink="http://www.w3.org/1999/xlink" x="0px" y="0px"
	 viewBox="0 0 170.1 170.1" enable-background="new 0 0 170.1 170.1" xml:space="preserve">
<g>
	<g>
		<g id="XMLID_1_">
			<g>
				<path fill="#FFFFFF" d="M151.6,94.7c-16.9,0-33.8,0-50.7,0v0c0.9,0,1.4-0.2,1.9-1c1.3-1.9,1.5-1.9,3.7-0.9
					c0.2,0.1,0.5,0.3,0.8,0.3c1-0.1,2-0.2,3-0.5c1.3-0.3,2.5-0.8,3.7-1.3c1.5-0.6,2.8-0.2,4.2,0.2c1.7,0.5,3.4,1.2,5.2,0.4
					c0.2-0.1,0.4,0,0.6,0.1c1,0.1,2.1,0.5,3.1,0.4c1.3-0.1,2.5-0.6,3.7-1c1.2-0.4,2.1-1.2,3-2.1c-0.6-0.2-1.3-0.3-1.7-0.6
					c-1.6-1.4-3.6-1.8-5.5-2.6c-1-0.4-1.3-0.7-1.3-1.8c0.4-0.2,0.8-0.4,1.1-0.6c0.9-0.7,1.9-1.3,1.9-2.7c0-0.2,0.4-0.5,0.7-0.5
					c1.1-0.2,1.6-0.7,1.7-1.8c0-0.2,0.1-0.5,0.3-0.6c0.6-0.7,1.2-1.4,1.8-2.2c-0.2-0.1-0.2-0.3-0.3-0.3c-1.5,1.2-3,1.8-4.9,2.2
					c-0.7,0.2-2,0.7-2.6,1c-1.2,0.7-1.9,1.1-3.1,1.8c-0.3,0.2-0.8,0.5-1.4,0.8l-0.1-0.2c1.5-0.9,2.9-1.9,4.4-2.7
					c1-0.5,2.1-0.8,3.1-1.1c1.6-0.4,3-0.9,4.2-2c0.3-0.3,0.8-0.3,1.1,0.1c0.8,1.1,1.6,2.2,2.5,3.1c0.5,0.6,1.2,1,1.9,1.3
					c1.6,0.5,2.3,1.9,3.3,3c1,1.3,1.5,2.8,2.2,4.2c0.2,0.5,0.5,1.1,0.9,1.5c1.7,1.7,3.3,3.6,5.3,5C150,94,150.7,94.3,151.6,94.7z"/>
			</g>
			<g>
				<path fill="#FFFFFF" d="M120.5,81.2l0.1,0.2c-0.2,0.1-0.4,0.2-0.5,0.2c-1.7,0.5-2.7,1.1-4.2,1.9c-1.4,0.7-2.9,1.4-4.4,2
					c-1,0.4-2.2,0.6-3.1,1.1c-1.6,1-3.4,1.3-5.2,1.5c-1.2,0.1-2.3,0.4-3.5,0.6c-0.5,0.1-1.1,0.2-1.6,0.3c-0.1-0.1-0.1-0.1-0.2-0.2
					c0.1-0.3,0.2-0.7,0.5-0.9c1.1-1.2,2-2.5,2.4-4.1c0.1-0.4,0.2-0.8,0.3-1.2c-0.4,0.1-0.6,0.3-0.7,0.6c-0.6,1.1-1.2,2.2-1.7,3.3
					c-0.2,0.4-0.4,1-1.2,0.7c0.5-1.3,0.9-2.6,1.4-4c-1.1,0.1-2,1.1-3,0.4c-0.3,0.4-0.5,0.8-0.7,1.1c-0.1,0-0.2-0.1-0.2-0.1
					c-0.1-0.2-0.1-0.5-0.3-1c-0.4,0.5-0.7,0.8-0.9,1.2c-0.2,0.5-0.3,1-0.4,1.5c-0.1,0.2-0.3,0.4-0.4,0.6c-0.2-0.3-0.2-0.4-0.2-0.5
					c-0.2-0.4-0.5-1-0.8-1c-0.5-0.1-0.9,0.3-0.9,1c0,0.3-0.1,0.6-0.2,0.8c-0.1,0.3-0.3,0.5-0.4,0.7c-0.1-0.2-0.3-0.4-0.4-0.6
					c-0.1-0.2-0.2-0.4-0.4-0.5c-0.4-0.3-0.9-0.5-1.6-0.9c-1.1,0.2-1.6,2-3,2.3c-0.2-1.6,0.6-2.7,1.4-3.8c0.1-0.2,0.4-0.3,0.6-0.3
					c1.4,0.2,2.3-0.5,3.1-1.5c0.1-0.2,0.4-0.3,0.6-0.4c1.6-0.8,3.3-1.3,4.6-2.6c0.2-0.2,0.6-0.2,0.9-0.2c1.2,0,2.3,0,3.5,0
					c0.2-0.7,0.4-1.2,0.6-1.7c0.2-0.4,0.5-0.9,0.4-1.1c-0.7-1.8-1.5-3.6-2.4-5.3c-0.3-0.6-0.3-1.5,0.1-2c0.4-0.4,0.7-0.9,1.2-1.5
					c-0.6-0.5-1.2-0.9-1.8-1.4c-0.6-0.5-1.1-1.1-1.7-1.7c-0.9,0.7-2.2,0.7-3.4,0.3c-1.5-0.6-2.8-1.5-3.7-2.9
					c-0.8-1.2-1.4-2.6-2.3-3.7c-0.6-0.7-0.6-1.1-0.2-1.9c0.8-1.8,0.4-3.2-1-4.1c-0.6-0.4-0.7-0.8-0.3-1.2c0.7-0.9,1.5-1.8,2.3-2.7
					c0.4-0.5,0.7-0.9,0.6-1.6c-0.1-0.6,0-1.1,0.4-1.7c0.5-0.7,0.9-1.6,1-2.4c0.3-1.5,0.8-2.9,1.8-4.1c0.8-1,0.6-2.1-0.4-3
					c-0.9-0.8-1.6-1.8-2.5-2.6l0.1-0.1c0.6,0.5,1.1,1,1.6,1.4c0.2,0.1,0.9,1,1,1.1c1,1,1.2,1,1.7,2.4c0.3,0.8,1.1,1.5,1.6,2.2
					c0.6,1,1.4,1.9,1.5,3.2c0.1,1.2,0.6,2.4,1.7,3.2c-0.3,0.5-0.6,0.9-0.7,1.4c-0.1,0.4,0.2,0.9,0.5,1.2c1.2,0.9,2,2.2,2.9,3.4
					c0.5,0.7,1.3,1.2,2,1.7c0.8,0.5,1.4,1.1,1.7,1.9c0.6,1.5,1.9,2.2,3.2,3c0.8,0.5,1.2,1.1,1.3,1.9c0.2,1.8,1.6,2.9,2.3,4.4
					c0.1,0.3,0.3,0.6,0.4,0.9c0.3,0.9,1.2,1.4,1.9,2c0.9,0.7,1.7,1.7,2.5,2.5c1.8,1.9,2.8,4.2,3.7,6.6
					C119.6,78.5,120,79.8,120.5,81.2z"/>
			</g>
			<g>
				<path fill="#FFFFFF" d="M100.8,94.6L100.8,94.6c-19,0-38,0-57.1,0v-0.1c0.2,0,0.4-0.1,0.5-0.2c0.5-0.7,1-1.5,1.6-2.2
					c1.4-2,3-3.7,4.9-5.2c2.1-1.7,3.7-3.7,4.4-6.3c0.5-1.8,1.2-3.5,2.3-5.1c0.1-0.2,0-0.5,0-0.8c0-0.3-0.1-0.5,0-0.7
					c0.1-0.1,0.2-0.2,0.5-0.3c1.2-0.3,2.4-0.7,3.6-1.2c2.4-1,4.2-2.7,5.3-5c0.7-1.5,1.8-2.3,3.6-2.2c0.8,0,1.7-0.1,2.5-0.2
					c0.7-0.1,1.2-0.4,1.8-0.7c0.7-0.4,1.3-1,1.9-1.6c0.9-0.8,1.1-0.9,1.9,0.2c0.1,0.1,0.2,0.2,0.2,0.4c0.3,1.2,0.7,2.4,0.9,3.7
					c0.1,1,0,2.1-0.1,3.1c-0.3,1.6-0.5,3.2,0.2,4.7c0.2,0.5,0.4,1.1,0.5,1.7c0.2,2.1,0.2,4.2,0.4,6.3c0.2,1.7,0.6,3.4,1.7,4.8
					c0.2,0.2,0.5,0.5,0.6,0.8c0,0.1,0,0.1,0,0.2c-0.1,1.4,0.5,2.9-0.4,4.2c-0.1,0.1,0,0.3,0,0.5c0.2,0.5,0.3,1,0.5,1.5
					c0.2,0,0.5,0,0.7,0C89.4,94.6,95.1,94.6,100.8,94.6C100.8,94.6,100.8,94.6,100.8,94.6z M65.3,84.9c1-1.8,1.8-3.6,1.6-5.8
					c-0.5,0.5-1,1-1.5,1.4c-1.1,0.8-2.3,1.6-3.4,2.4c-1.6,1.1-3.3,2.3-4.9,3.4c-0.3,0.2-0.7,0.8-0.6,1.2c0.1,1.5-0.7,2.4-1.8,3
					c-1.4,0.8-3,1.3-4.4,2c-1,0.5-2,1.2-3,1.8c0,0.1,0.1,0.1,0.1,0.2c4.6,0,9.2,0,13.8,0c0.2,0,0.5,0,0.5-0.1c0.7-1.1,1.7-2,1.7-3.4
					C63.5,88.9,64.2,86.9,65.3,84.9z"/>
			</g>
			<g>
				<path fill="#FFFFFF" d="M95.2,69.7c-0.1,0.7-0.3,1.3-0.4,2c-0.1,0-0.2,0-0.4-0.1c0.1-0.7,0.3-1.3,0.4-2
					C94.9,69.6,95,69.6,95.2,69.7z"/>
			</g>
			<g>
				<path fill="#FFFFFF" d="M92.9,71.2c0.7,0.9,0.7,1.7-0.1,2.3C92.8,72.8,92.9,72.1,92.9,71.2z"/>
			</g>
			<g>
				<path fill="#FFFFFF" d="M92.3,68c0.1,0.1,0,0.4-0.1,0.6c-0.2-0.1-0.6-0.1-0.6-0.2c-0.2-0.5-0.2-1-0.3-1.5c0.1,0,0.2-0.1,0.3-0.1
					C91.9,67.2,92.1,67.6,92.3,68z"/>
			</g>
			<g>
				<path fill="#FFFFFF" d="M88.9,68.7c1.3,0.7,1.5,1.6,0.5,2.1C89.2,70.1,89.1,69.4,88.9,68.7z"/>
			</g>
			<g>
				<path fill="#FFFFFF" d="M88.8,70.2c0,0.3-0.2,0.6-0.4,0.9c-0.1,0-0.2-0.1-0.3-0.1c-0.1-0.6-0.1-1.1-0.2-1.7
					c0.1,0,0.2-0.1,0.3-0.1C88.4,69.5,88.7,69.9,88.8,70.2z"/>
			</g>
			<g>
				<path fill="#FFFFFF" d="M88.5,32.7L88.5,32.7c-0.5-0.3-0.9-0.6-1.5-0.8c-0.2-0.1-0.3-0.3-0.4-0.5c-0.1-0.1-0.4-0.2-0.5-0.4
					c-0.2-0.2-0.6-0.5-0.7-0.8c-0.2-0.9-1.6-2.2-2.6-2.3c0.5,1.4,1,2.7,1.6,4.1c0,0,0.2,0,0.5,0.1c-0.1,0.4-0.1,0.7-0.2,1
					c-0.4,0.8-0.5,1.4,0,2.2c0.4,0.6,0.5,1.3,0.4,2.1c-0.1,0.8-0.3,1.3-1,1.6c-0.3,0.1-0.6,0.5-0.6,0.8c0,0.9-0.5,1.5-1.1,2
					c-0.2,0.1-0.4,0.3-0.4,0.5c-0.1,1.1-0.8,1.7-1.7,2.1c-0.2,0.1-0.4,0.3-0.7,0.5c-0.3,0.2-0.6,0.5-1,0.6c-1.1,0.1-2.2,0.1-3.3,0.1
					c-0.7,0-1.4,0-2,0.3c-0.6,0.3-1,0.9-1.5,1.3c-0.1,0.1-0.1,0.1-0.2,0.2c-0.6,0.5-1.3,1.1-2,1.5c-0.9,0.5-1.9,0.8-2.8,1.1
					c-0.9,0.3-1.7,0.7-2.3,1.5c-0.9,1-1.7,2-2.7,3c-0.4,0.4-1.1,0.7-1.6,1.1c-0.5,0.5-0.9,0.8-1.3,1.3c-0.2,0.2-0.9,1-1.1,1.2
					c-0.8,0.8-1.4,1.4-2.3,2.1c-1.2,0.9-2.2,1.8-2.9,3.1c-0.5,0.9-1.3,1.5-1.9,2.2c-0.1,0.1-0.3,0.3-0.4,0.4L50.1,66
					c0.8-0.9,1.7-1.8,2.4-2.8c0.6-0.9,1.3-1.8,2.2-2.5c1.4-0.9,2.4-2.2,3.6-3.3c1.4-1.3,1.9-3,2.8-4.5c0.1-0.1,0.2-0.2,0.1-0.3
					c-0.6-1.6,0.7-2.5,1.5-3.5c0.9-1.3,2-2.4,3-3.6c0.3-0.4,0.5-1,0.8-1.4c0.6-0.9,1.2-1.9,2-2.6c0.5-0.5,1.4-0.8,2.1-0.8
					c1.1-0.1,1.9-0.7,2.4-1.4c1.3-1.7,2.8-3.3,4.5-4.6c1-0.8,1.9-2.1,2.6-3.2c0.9-1.4,1.4-2.9,2.3-4.4c0.9,0.6,2.5,1.5,3,2.7
					c0.4,1.1,1.1,1.3,1.9,2C87.7,32.1,88.1,32.4,88.5,32.7z M82.4,32.1c0.2-0.2,0.4-0.5,0.4-0.6c-0.6-0.9-0.8-1.9-0.4-3
					c-0.9,1.3-1.3,2.9-2.4,4c-0.9,0.9-1.5,2.1-2.5,2.8c-1.7,1.1-2.9,2.8-4.1,4.3c-0.7,0.9-1.8,1.2-2.9,1.5c-2.1,0.5-3.1,2.3-3.7,4.1
					c0.7-0.3,1.5-0.6,2.3-0.9c0.4-0.2,0.8-0.4,1.1-0.6c0.7-0.6,1.3-1.2,2-1.8c0.3-0.2,0.9-0.4,1-0.3c0.7,0.6,1-0.1,1.4-0.3
					c1.1-0.7,2.1-1.6,3.2-2.3c1.4-0.9,2.8-1.7,3.4-3.4c-0.4-0.1-0.8-0.1-1.2-0.2c-0.2-0.1-0.5-0.1-0.6-0.3c-0.1-0.1,0.1-0.4,0.3-0.5
					C80.5,33.7,81.5,32.9,82.4,32.1z M76.2,41.3c-0.1-0.1-0.1-0.2-0.2-0.2c-0.6,0.5-1.3,0.9-1.9,1.4c0,0.1,0.1,0.1,0.2,0.2
					C75,42.2,75.6,41.7,76.2,41.3z"/>
			</g>
			<g>
				<path fill="#FFFFFF" d="M87.4,34.9c0.9,2,1,4,0.7,6.1c-0.1,0.8-0.6,1.2-1.5,1.6c-0.1-1.8-0.2-3.4-0.2-5.1c0-1.2-0.2-2.4-0.7-3.5
					c-0.2-0.6-0.4-1.2-0.5-1.8C86.1,33,86.9,33.8,87.4,34.9z"/>
			</g>
			<g>
				<path fill="#FFFFFF" d="M87.3,70.3c0,0.2-0.3,0.4-0.5,0.6c-0.2-0.3-0.4-0.6-0.5-0.9c-0.1-0.3,0.1-0.6,0.1-0.9
					c0.1,0,0.2,0,0.4-0.1C87,69.5,87.2,69.9,87.3,70.3z"/>
			</g>
			<g>
				<path fill="#FFFFFF" d="M84.3,44c0.7,0.9,0.5,2.2-0.6,3.1C83.9,46.1,84.1,45.1,84.3,44z"/>
			</g>
			<g>
				<path fill="#FFFFFF" d="M83,47c-0.2,0.5-0.4,1.1-0.6,1.6c-0.1,0-0.2-0.1-0.3-0.1c0.2-0.5,0.4-1.1,0.6-1.6
					C82.8,46.9,82.9,47,83,47z"/>
			</g>
			<g>
				<path fill="#FFFFFF" d="M76.1,41c0,0.1,0.1,0.2,0.2,0.2c-0.6,0.5-1.3,0.9-1.9,1.4c0-0.1-0.1-0.1-0.2-0.2
					C74.8,41.9,75.4,41.5,76.1,41z"/>
			</g>
			<g>
				<path fill="#FFFFFF" d="M74.7,48.5c0.2,2.2-0.4,4.2-0.9,6.2c-0.1,0.4-0.2,1,0,1.2c0.5,0.4,0.4,0.8,0.4,1.2c0,1.5,0,2.9,0,4.4
					c0,0.5-0.1,0.9-0.2,1.4c-0.2,0-0.4,0-0.6,0c-1.6,0.1-3.2,0.2-4.8,0.3c-1.7,0.2-3.3,0.5-4.9,0.7c-1,0.1-1.9,0.3-2.7,1.2
					c-1.2,1.4-2.5,2.8-3.7,4.2c-0.4,0.5-0.9,0.8-0.8,1.6c0,0.2-0.2,0.6-0.4,0.8c0,0,0,0,0,0c-1.7,1.8-3.6,3.1-6,3.7
					c-0.2,0.1-0.4,0.1-0.6,0.2c-1.5,0.4-3,0.7-4.5,1.2c-1.7,0.5-2.9,1.5-3.7,3.2c-0.6,1.3-1.6,2.6-2.6,3.5c-1.7,1.5-3.1,2.9-3.6,5.2
					c-0.1,0.4-0.5,0.9-0.8,1.1c-0.7,0.4-1.1,0.9-1.2,1.8c0,0.3-0.4,0.7-0.7,0.9c-0.1,0.1-0.5-0.2-0.7-0.3c-0.4,0.5-0.8,1-1.2,1.4
					c-0.1,0-0.2-0.1-0.3-0.2c0.1-0.7,0-1.5,0.3-2.1c0.4-1,1.1-1.8,1.6-2.7c0.5-0.9,0.5-0.9,1.2-0.3c0.6-1.4,1.1-2.8,1.7-4.2
					c-0.3,0.2-0.5,0.4-0.7,0.7c-1.2,1.1-2.3,2.2-3.5,3.3c-0.6,0.6-0.9,1.3-1.1,2.1c-0.1,0.4-0.3,0.7-0.5,1.2
					c-0.2-0.2-0.3-0.4-0.6-0.6c-0.2,1.3-0.4,2.5-0.6,3.7c0.1,0.1,0.1,0.1,0.2,0.1c3.5,0,7.1,0,10.6,0c1.7,0,3.4,0,5,0v0.1
					c-8,0-16,0-24,0c0.3,0,0.5-0.1,0.6-0.1c1,0,2-0.1,3,0c1.2,0.2,1.7-0.4,2.3-1.4c0.7-1.3,1.3-2.7,2.5-3.7c0.2-0.1,0.3-0.5,0.2-0.8
					c-0.1-0.7,0.1-1,0.7-1.3c0.3-0.1,0.6-0.2,0.9-0.3c0.6-0.2,1.1-0.4,1-1.3c0-0.3,0.3-0.7,0.6-0.9c1.5-1.1,2.8-2.4,3.5-4.2
					c0.3-0.7,0.4-1.4,0.7-2.2c-0.1,0-0.1,0-0.2-0.1c-0.6,0.5-1.1,1.1-1.8,1.5s-0.9,1-1,1.7c-0.1,0.8-1.3,2.2-2.1,2.4
					c0.5-1.6,0.5-3.4,2-4.5c0.6-0.5,1-1.1,1-1.9c0-0.3,0.3-0.8,0.6-1c1-0.7,2.5-1.5,3.6-2.2c-0.8-0.3-1.2-0.9-2-0.4
					c-0.4,0.2-1.5,1.2-1.9,1.4c-2,1.3-3.8,2.4-5.8,3.7c-1.3,0.9-2.9,2-3.5,3.5c-0.8,2-1.4,3.5-2,5.7c-0.4,1.4-0.7,3.1-2,4.1
					c-0.5,0.4-1.1,1.5-1.7,2.1c-0.2,0-0.4,0-0.5,0c0.8-0.9,1.4-1.9,2.3-2.6c0.9-0.8,1-1.9,1.3-2.9c0.6-1.8,1.1-3.7,1.8-5.5
					c0.4-1.1,1-2.1,1.7-3c0.7-0.8,1.7-1.3,2.7-1.9c2.2-1.4,4.4-2.8,6.6-4.3c0.1-0.1,0.3-0.2,0.4-0.3c0.6-0.9,1.3-0.6,2-0.3
					c0.3,0.1,0.6,0.3,0.9,0.2c0.7-0.1,1.4-0.2,2-0.6c0.5-0.3,1.1-0.8,1.3-1.3c0.8-1.8,2.4-2.6,4.1-3.4c1-0.5,2.2-0.7,2.9-1.7
					c0.4-0.5,1-0.9,1.5-1.4l0.1,0.1c-0.6,0.6-1.3,1.3-1.8,1.9c-0.2,0.2-1.6,0.9-1.8,1c-1.4,0.7-2.2,1-2.9,1.5
					c-0.4,0.2-1.3,1-1.5,1.4c-0.3,1.2-0.9,1.5-1.8,2.1c-0.4,0.3-0.7,0.6-1,1c-0.6,0.6-1,1.4-1.5,2.1c-0.4,0.5-0.7,1.1-1,1.6
					c0.1,0.1,0.2,0.1,0.3,0.2c1-1.7,2.5-2.6,4-3.7c0.1,0.1,0.2,0.1,0.3,0.2c-0.3,0.6-0.7,1.2-1,1.7c-0.2,0.2-0.3,0.3-0.5,0.4
					c0,0.1,0.1,0.1,0.2,0.2c0.1-0.2,0.2-0.4,0.4-0.7c0.6-0.5,1.3-1.1,2-1.6c0.9-0.6,1.9-1.1,2.8-1.5c1.1-0.5,2.1-1.2,3.2-1.3
					c1-0.2,1.6-0.6,2.2-1.3c0.9-1.1,2-2.1,3.1-3.1c1.4-1.3,3-2.4,4.1-3.9c1.1-1.4,2.5-1.9,4.1-2.3c0.5-0.1,1.1-0.4,1.4-0.8
					c0.7-1,1.6-1.3,2.7-1.6c0.9-0.3,1.9-0.6,2.7-1.2c1.4-1.1,2.8-4.7,3-6.7c-1.3,1.5-2.5,3.1-4.5,3.8c-0.2-0.9,0.3-2.3,1-2.9
					c1.3-1.3,2.6-2.6,3.4-4.2c0.1-0.3,0.4-0.6,0.7-0.8c0.2-0.1,0.4-0.3,0.5-0.4c1.2-0.7,1.9-0.4,2,1C74.7,48.3,74.7,48.4,74.7,48.5z
					 M27.3,93.2c-0.1,0-0.1,0-0.2-0.1c-0.2,0.3-0.5,0.5-0.6,0.8c-0.1,0.1,0.1,0.3,0.1,0.5c0.2-0.1,0.4-0.1,0.5-0.2
					C27.2,94,27.3,93.6,27.3,93.2z"/>
			</g>
			<g>
				<path fill="#FFFFFF" d="M64.5,66.1c0.1,0.5,0.1,1-0.5,1.3c-0.1,0-0.2-0.1-0.3-0.1c0.2-0.4,0.3-0.9,0.5-1.3
					C64.3,66,64.4,66.1,64.5,66.1z"/>
			</g>
			<g>
				<path fill="#FFFFFF" d="M63.2,65.9c0,1.7-0.3,3.1-2,4C61.1,68.5,62.2,66.4,63.2,65.9z"/>
			</g>
			<g>
				<path fill="#FFFFFF" d="M61,67.4c-0.2,0.6-0.5,1.1-0.7,1.7c-0.2-0.1-0.3-0.1-0.5-0.2c0.3-0.6,0.6-1.1,0.8-1.7
					C60.8,67.3,60.9,67.4,61,67.4z"/>
			</g>
			<g>
				<path fill="#FFFFFF" d="M57,62c0.4,1.1-0.1,1.9-1.2,1.8C56.2,63.1,56.6,62.6,57,62z"/>
			</g>
			<g>
				<path fill="#FFFFFF" d="M56.6,72.2c0,0.6-0.1,1.1-0.4,1.6c-0.3,0.4-0.6,0.8-1.1,1.1c0.2,0.1,0.4,0.1,0.6,0.2
					c-0.7,1.3-1.3,1.9-2.3,1.8c0.5-0.6,1-1.2,1.5-1.8c-0.1-0.1-0.3-0.4-0.2-0.4C55.3,73.8,55.9,73,56.6,72.2z"/>
			</g>
			<g>
				<path fill="#FFFFFF" d="M55.6,62.7c-0.3,1.7-1.4,2.9-2.6,3c0.5-0.9,0.9-1.8,1.5-2.6C54.7,62.9,55.2,62.9,55.6,62.7z"/>
			</g>
			<g>
				<path fill="#FFFFFF" d="M53.5,78.4c-0.4,0.4-0.7,0.9-1.1,1.3c-0.1-0.1-0.2-0.2-0.4-0.3c0.4-0.4,0.7-0.9,1.1-1.3
					C53.3,78.2,53.4,78.3,53.5,78.4z"/>
			</g>
			<g>
				<path fill="#FFFFFF" d="M53.4,75.2c-0.3,0.6-0.6,1.2-0.8,1.9C51.9,76.5,52.2,75.8,53.4,75.2z"/>
			</g>
			<g>
				<path fill="#FFFFFF" d="M49.4,81.4c0.1,1-0.9,2.3-2,2.8C47.6,82.9,48.6,82.3,49.4,81.4z"/>
			</g>
			<g>
				<path fill="#FFFFFF" d="M50.1,78c-0.3,1.6-1.2,2.4-2.3,3.3c-0.2-0.2-0.3-0.4-0.6-0.7c-0.4,0.6-0.8,1.1-1.2,1.7
					c-0.2,0.3-0.2,0.8-0.5,1.1c-1.6,1.8-2.4,4-3.6,6c-0.8,1.3-1.7,2.6-3.3,3.2c0.9-1.4,1.9-2.7,2.8-4.1c1.1-1.8,2.2-3.6,3.1-5.5
					c0.9-1.8,2-3.4,3.8-4.3C49,78.4,49.5,78.2,50.1,78z"/>
			</g>
			<g>
				<path fill="#FFFFFF" d="M44.3,72c0,0.3,0.1,0.7,0.1,1c0,0.1-0.2,0.3-0.4,0.4c-0.1-0.2-0.4-0.3-0.3-0.5c0.1-0.3,0.3-0.6,0.4-1
					C44.1,72,44.2,72,44.3,72z"/>
			</g>
			<g>
				<path fill="#FFFFFF" d="M40.3,77.1c-0.1,0.2-0.2,0.4-0.4,0.7c-0.1-0.1-0.1-0.1-0.2-0.2C40,77.4,40.2,77.2,40.3,77.1z"/>
			</g>
			<g>
				<path fill="#FFFFFF" d="M27.1,93.2c0.1,0,0.1,0,0.2,0.1c-0.1,0.4-0.1,0.8-0.2,1.1c0,0.1-0.3,0.1-0.5,0.2c0-0.2-0.2-0.4-0.1-0.5
					C26.7,93.7,26.9,93.4,27.1,93.2z"/>
			</g>
			<g>
				<path fill="#FFFFFF" d="M19,94.7c0.2,0,0.5,0,0.7,0C19.5,94.7,19.2,94.7,19,94.7z"/>
			</g>
		</g>
		<g>
			<path fill="#FFFFFF" stroke="#000000" stroke-width="0.8253" stroke-miterlimit="10" d="M85,53.4"/>
		</g>
		<g>
			<path fill="#FFFFFF" stroke="#000000" stroke-width="0.8253" stroke-miterlimit="10" d="M85,68.7"/>
		</g>
	</g>
	<g>
		<g>
			<path fill="#FFFFFF" d="M33,128.7c0.9-2.7,1.4-4.1,2.3-6.8c0.8,0.3,1.2,0.4,2,0.7c0.6,0.2,1,0.5,1.3,0.9c0.3,0.4,0.3,0.8,0.2,1.3
				c-0.1,0.4-0.3,0.7-0.6,0.9s-0.7,0.3-1.1,0.3c0,0,0,0,0,0c0.5,0.2,0.8,0.5,1,0.9c0.2,0.4,0.2,0.8,0.1,1.3c-0.2,0.6-0.6,1-1.1,1.2
				c-0.6,0.2-1.2,0.2-1.9,0C34.3,129.1,33.9,128.9,33,128.7z M35.9,122.9c-0.3,0.9-0.4,1.3-0.7,2.2c0.3,0.1,0.5,0.2,0.9,0.3
				c0.5,0.2,0.9,0.2,1.2,0c0.3-0.1,0.6-0.4,0.7-0.8c0.2-0.7-0.1-1.1-1-1.4C36.5,123.1,36.3,123,35.9,122.9z M34.9,125.8
				c-0.3,1-0.5,1.5-0.8,2.4c0.5,0.2,0.7,0.2,1.2,0.4c0.5,0.2,0.9,0.2,1.3,0c0.3-0.1,0.6-0.4,0.7-0.8c0.3-0.8-0.2-1.4-1.3-1.8
				C35.5,126,35.3,125.9,34.9,125.8z"/>
			<path fill="#FFFFFF" d="M45,132.3c-0.4-0.1-0.6-0.1-1-0.3c-0.1-0.9-0.2-1.3-0.3-2.1c-1.2-0.3-1.9-0.5-3.1-0.9
				c-0.5,0.7-0.8,1-1.3,1.7c-0.4-0.1-0.6-0.2-1-0.3c2-2.4,2.9-3.6,4.8-6.1c0.3,0.1,0.5,0.1,0.9,0.2C44.4,127.7,44.6,129.2,45,132.3z
				 M43.7,129.1c-0.1-1.3-0.2-2-0.3-3.3c0-0.1,0-0.3,0-0.5c0,0,0,0,0,0c-0.1,0.2-0.2,0.3-0.2,0.4c-0.8,1.1-1.2,1.6-2,2.6
				C42.2,128.6,42.7,128.8,43.7,129.1z"/>
			<path fill="#FFFFFF" d="M51.6,133.5c-0.6,0.2-1.3,0.1-2.2,0c-1.1-0.2-1.8-0.8-2.3-1.6c-0.5-0.8-0.6-1.7-0.3-2.7
				c0.3-1.1,0.9-1.9,1.7-2.4c0.9-0.5,1.8-0.7,2.9-0.4c0.7,0.2,1.2,0.4,1.6,0.7c-0.1,0.3-0.1,0.5-0.2,0.9c-0.5-0.4-1-0.7-1.6-0.8
				c-0.8-0.2-1.5-0.1-2.2,0.3c-0.6,0.4-1.1,1.1-1.3,2c-0.2,0.8-0.1,1.6,0.2,2.2c0.4,0.6,1,1,1.8,1.2c0.7,0.2,1.4,0.2,2,0
				C51.7,133,51.7,133.2,51.6,133.5z"/>
			<path fill="#FFFFFF" d="M58.6,135.1c-0.5-0.1-0.7-0.1-1.2-0.2c-0.9-1.5-1.4-2.2-2.3-3.8c-0.1-0.1-0.1-0.2-0.1-0.3c0,0,0,0,0,0
				c-0.3,1.4-0.4,2.1-0.7,3.5c-0.4-0.1-0.5-0.1-0.9-0.2c0.6-2.8,0.8-4.2,1.4-7c0.3,0.1,0.5,0.1,0.8,0.2c-0.3,1.3-0.4,2-0.6,3.3
				c0,0,0,0,0,0c0.1-0.1,0.1-0.1,0.2-0.2c1.3-1,2-1.5,3.3-2.6c0.4,0.1,0.6,0.1,1,0.2c-1.5,1.1-2.2,1.7-3.7,2.8
				C56.9,132.6,57.5,133.4,58.6,135.1z"/>
			<path fill="#FFFFFF" d="M68.4,130c-0.8-0.1-1.3-0.1-2.1-0.2c-0.3,2.5-0.5,3.8-0.8,6.4c-0.4,0-0.5-0.1-0.9-0.1
				c0.3-2.5,0.5-3.8,0.8-6.4c-0.8-0.1-1.3-0.2-2.1-0.3c0-0.3,0.1-0.5,0.1-0.8c2,0.3,3,0.4,5,0.6C68.4,129.6,68.4,129.7,68.4,130z"/>
			<path fill="#FFFFFF" d="M72.2,136.9c-1.1-0.1-1.9-0.5-2.5-1.2c-0.6-0.7-0.8-1.6-0.7-2.7c0.1-1.1,0.5-2,1.2-2.6
				c0.7-0.6,1.6-0.9,2.7-0.8c1,0.1,1.8,0.5,2.4,1.2c0.6,0.7,0.8,1.6,0.8,2.7c-0.1,1.2-0.4,2.1-1.1,2.7
				C74.2,136.8,73.3,137,72.2,136.9z M72.8,130.3c-0.8-0.1-1.4,0.2-1.9,0.6c-0.5,0.5-0.8,1.2-0.9,2.1c-0.1,0.9,0.1,1.6,0.5,2.2
				c0.4,0.6,1,0.9,1.8,1c0.8,0.1,1.5-0.1,2-0.6c0.5-0.5,0.8-1.2,0.9-2.1c0.1-0.9-0.1-1.7-0.5-2.2C74.2,130.7,73.6,130.4,72.8,130.3z
				"/>
			<path fill="#FFFFFF" d="M85.5,130.9c-0.8,0-1.3,0-2.1,0c0,2.6,0,3.8-0.1,6.4c-0.4,0-0.5,0-0.9,0c0-2.6,0.1-3.8,0.1-6.4
				c-0.8,0-1.3,0-2.1-0.1c0-0.3,0-0.5,0-0.8c2,0.1,3,0.1,5,0.1C85.5,130.5,85.5,130.6,85.5,130.9z"/>
			<path fill="#FFFFFF" d="M92.7,137.2c-0.4,0-0.5,0-0.9,0c-0.1-1.3-0.1-2-0.1-3.3c-1.5,0.1-2.3,0.1-3.9,0.1c0,1.3,0,2,0.1,3.3
				c-0.4,0-0.5,0-0.9,0c0-2.9,0-4.3-0.1-7.2c0.3,0,0.5,0,0.9,0c0,1.3,0,1.9,0.1,3.1c1.5,0,2.3,0,3.8-0.1c-0.1-1.3-0.1-1.9-0.1-3.1
				c0.3,0,0.5,0,0.9,0C92.5,132.9,92.6,134.3,92.7,137.2z"/>
			<path fill="#FFFFFF" d="M99,136.8c-1.6,0.1-2.4,0.2-4,0.3c-0.2-2.9-0.3-4.3-0.4-7.1c1.5-0.1,2.2-0.1,3.7-0.3c0,0.3,0,0.5,0.1,0.8
				c-1.1,0.1-1.7,0.1-2.8,0.2c0.1,1,0.1,1.4,0.2,2.4c1.1-0.1,1.6-0.1,2.7-0.2c0,0.3,0,0.5,0.1,0.8c-1.1,0.1-1.6,0.1-2.7,0.2
				c0.1,1,0.1,1.5,0.2,2.5c1.2-0.1,1.9-0.1,3.1-0.2C99,136.3,99,136.5,99,136.8z"/>
			<path fill="#FFFFFF" d="M109.5,135.5c-0.4,0.1-0.6,0.1-1.1,0.2c-0.6-0.7-0.9-1.1-1.5-1.8c-0.1-0.2-0.3-0.3-0.4-0.4
				c-0.1-0.1-0.2-0.2-0.4-0.3c-0.1-0.1-0.3-0.1-0.4-0.1c-0.1,0-0.3,0-0.4,0c-0.3,0-0.4,0.1-0.7,0.1c0.1,1.2,0.2,1.8,0.4,3
				c-0.4,0-0.5,0.1-0.9,0.1c-0.3-2.8-0.5-4.3-0.8-7.1c0.9-0.1,1.3-0.2,2.2-0.3c0.3,0,0.6,0,0.9,0c0.3,0,0.5,0.1,0.7,0.3
				c0.2,0.1,0.4,0.3,0.5,0.5c0.1,0.2,0.2,0.5,0.3,0.8c0,0.2,0,0.5,0,0.7c0,0.2-0.1,0.4-0.2,0.6c-0.1,0.2-0.3,0.3-0.5,0.5
				c-0.2,0.1-0.4,0.3-0.6,0.4c0,0,0,0,0,0c0.1,0,0.2,0.1,0.3,0.1s0.2,0.1,0.3,0.2c0.1,0.1,0.2,0.2,0.3,0.3c0.1,0.1,0.2,0.2,0.3,0.4
				C108.5,134.4,108.8,134.8,109.5,135.5z M104.2,129.8c0.1,1,0.2,1.5,0.3,2.6c0.5-0.1,0.7-0.1,1.2-0.1c0.2,0,0.4-0.1,0.6-0.2
				c0.2-0.1,0.3-0.2,0.4-0.3c0.1-0.1,0.2-0.3,0.3-0.5c0.1-0.2,0.1-0.4,0-0.6c-0.1-0.4-0.2-0.7-0.5-0.8c-0.3-0.2-0.7-0.2-1.1-0.2
				C104.9,129.7,104.7,129.7,104.2,129.8z"/>
			<path fill="#FFFFFF" d="M113.9,134.9c-1.1,0.2-2,0-2.7-0.5c-0.7-0.6-1.2-1.4-1.4-2.4c-0.2-1.1,0-2.1,0.5-2.9
				c0.5-0.8,1.3-1.3,2.4-1.5c1-0.2,1.8,0,2.6,0.5c0.7,0.5,1.2,1.3,1.4,2.4c0.2,1.1,0.1,2.1-0.4,2.9
				C115.8,134.2,115,134.7,113.9,134.9z M112.8,128.4c-0.8,0.1-1.3,0.5-1.7,1.1c-0.4,0.6-0.5,1.4-0.4,2.2c0.1,0.9,0.5,1.5,1.1,2
				c0.6,0.5,1.2,0.6,2,0.5c0.8-0.1,1.4-0.5,1.8-1.1c0.4-0.6,0.5-1.3,0.3-2.2c-0.2-0.9-0.5-1.6-1.1-2
				C114.3,128.4,113.6,128.2,112.8,128.4z"/>
			<path fill="#FFFFFF" d="M122.3,133.2c-1.1,0.2-2,0.1-2.8-0.4c-0.8-0.5-1.3-1.3-1.5-2.4c-0.2-1.1-0.1-2.1,0.4-2.9
				c0.5-0.8,1.2-1.3,2.3-1.6c1-0.2,1.8-0.1,2.6,0.4c0.8,0.5,1.3,1.3,1.6,2.3c0.3,1.1,0.2,2.1-0.3,2.9
				C124.2,132.4,123.4,132.9,122.3,133.2z M120.9,126.7c-0.8,0.2-1.3,0.6-1.7,1.2c-0.4,0.6-0.4,1.4-0.3,2.2c0.2,0.9,0.6,1.5,1.2,1.9
				c0.6,0.4,1.3,0.5,2,0.4c0.8-0.2,1.4-0.6,1.7-1.2c0.3-0.6,0.4-1.4,0.2-2.3c-0.2-0.9-0.6-1.6-1.2-2
				C122.3,126.6,121.6,126.5,120.9,126.7z"/>
			<path fill="#FFFFFF" d="M130.1,124.3c-0.8,0.2-1.2,0.4-2,0.6c0.7,2.5,1.1,3.7,1.8,6.2c-0.3,0.1-0.5,0.1-0.9,0.2
				c-0.7-2.5-1-3.7-1.7-6.2c-0.8,0.2-1.2,0.3-2,0.6c-0.1-0.3-0.1-0.4-0.2-0.7c2-0.5,2.9-0.8,4.9-1.4C130,123.9,130,124,130.1,124.3z
				"/>
			<path fill="#FFFFFF" d="M133,129.8c-0.1-0.4-0.2-0.6-0.3-0.9c0.1,0.1,0.3,0.1,0.5,0.1c0.2,0,0.4,0,0.6,0c0.2,0,0.4,0,0.6,0
				c0.2,0,0.4-0.1,0.5-0.1c0.5-0.2,0.9-0.4,1.1-0.7c0.2-0.3,0.2-0.6,0.1-0.9c-0.1-0.2-0.2-0.3-0.3-0.4c-0.1-0.1-0.3-0.2-0.5-0.3
				c-0.2-0.1-0.4-0.1-0.6-0.1c-0.2,0-0.5-0.1-0.8-0.1c-0.3,0-0.6-0.1-0.8-0.1c-0.3-0.1-0.5-0.1-0.7-0.2c-0.2-0.1-0.4-0.2-0.5-0.4
				c-0.1-0.2-0.3-0.4-0.3-0.6c-0.1-0.3-0.1-0.6,0-0.9c0.1-0.3,0.2-0.5,0.4-0.7c0.2-0.2,0.4-0.4,0.7-0.6c0.3-0.2,0.6-0.3,0.9-0.4
				c0.7-0.2,1.2-0.3,1.6-0.3c0.1,0.4,0.2,0.5,0.3,0.9c-0.5-0.1-1.1-0.1-1.7,0.1c-0.2,0.1-0.4,0.1-0.5,0.2c-0.2,0.1-0.3,0.2-0.4,0.3
				c-0.1,0.1-0.2,0.3-0.2,0.4c0,0.2,0,0.3,0,0.5c0.1,0.2,0.1,0.3,0.2,0.4c0.1,0.1,0.2,0.2,0.4,0.3c0.2,0.1,0.4,0.1,0.6,0.1
				c0.2,0,0.5,0.1,0.8,0.1c0.3,0,0.6,0.1,0.9,0.1c0.3,0.1,0.5,0.1,0.8,0.2c0.2,0.1,0.4,0.2,0.6,0.4c0.2,0.2,0.3,0.4,0.4,0.6
				c0.1,0.3,0.1,0.6,0.1,0.9c-0.1,0.3-0.2,0.5-0.4,0.8c-0.2,0.2-0.4,0.4-0.7,0.6s-0.6,0.3-1,0.4c-0.1,0-0.3,0.1-0.4,0.1
				c-0.2,0-0.4,0.1-0.5,0.1c-0.2,0-0.4,0-0.5,0C133.3,129.9,133.1,129.9,133,129.8z"/>
		</g>
	</g>
	<g>
		<g>
			<path fill="#FFFFFF" d="M74,123.7h-2.3v-4.4h2.2v0.5h-1.7v1.5h1.6v0.5h-1.6v1.5H74V123.7z"/>
			<path fill="#FFFFFF" d="M74.8,123.5v-0.6c0.1,0.1,0.2,0.1,0.3,0.2s0.2,0.1,0.3,0.1c0.1,0,0.2,0.1,0.3,0.1c0.1,0,0.2,0,0.3,0
				c0.3,0,0.6-0.1,0.7-0.2c0.2-0.1,0.2-0.3,0.2-0.5c0-0.1,0-0.2-0.1-0.3c-0.1-0.1-0.1-0.2-0.2-0.2c-0.1-0.1-0.2-0.1-0.3-0.2
				s-0.3-0.1-0.4-0.2c-0.2-0.1-0.3-0.2-0.4-0.2c-0.1-0.1-0.2-0.2-0.3-0.3c-0.1-0.1-0.2-0.2-0.2-0.3c-0.1-0.1-0.1-0.3-0.1-0.4
				c0-0.2,0-0.4,0.1-0.5c0.1-0.1,0.2-0.3,0.3-0.4s0.3-0.2,0.5-0.2c0.2,0,0.4-0.1,0.6-0.1c0.4,0,0.8,0.1,0.9,0.2v0.6
				c-0.3-0.2-0.6-0.3-1-0.3c-0.1,0-0.2,0-0.3,0c-0.1,0-0.2,0.1-0.3,0.1c-0.1,0.1-0.2,0.1-0.2,0.2c-0.1,0.1-0.1,0.2-0.1,0.3
				c0,0.1,0,0.2,0.1,0.3c0,0.1,0.1,0.2,0.2,0.2c0.1,0.1,0.2,0.1,0.3,0.2c0.1,0.1,0.3,0.1,0.4,0.2c0.2,0.1,0.3,0.2,0.4,0.2
				c0.1,0.1,0.3,0.2,0.4,0.3s0.2,0.2,0.3,0.3c0.1,0.1,0.1,0.3,0.1,0.4c0,0.2,0,0.4-0.1,0.6c-0.1,0.2-0.2,0.3-0.3,0.4
				c-0.1,0.1-0.3,0.2-0.5,0.2c-0.2,0-0.4,0.1-0.6,0.1c-0.1,0-0.2,0-0.3,0s-0.2,0-0.3,0s-0.2,0-0.3-0.1
				C74.9,123.6,74.9,123.6,74.8,123.5z"/>
			<path fill="#FFFFFF" d="M81.2,119.8h-1.3v3.9h-0.5v-3.9h-1.3v-0.5h3.1V119.8z"/>
			<path fill="#FFFFFF" d="M81.6,123.8c-0.1,0-0.2,0-0.2-0.1s-0.1-0.1-0.1-0.2c0-0.1,0-0.2,0.1-0.2s0.1-0.1,0.2-0.1
				c0.1,0,0.2,0,0.2,0.1c0.1,0.1,0.1,0.1,0.1,0.2c0,0.1,0,0.2-0.1,0.2C81.8,123.8,81.7,123.8,81.6,123.8z"/>
			<path fill="#FFFFFF" d="M87.3,123.7h-2.7v-0.4L86,122c0.3-0.3,0.6-0.6,0.7-0.8c0.1-0.2,0.2-0.5,0.2-0.7c0-0.3-0.1-0.5-0.2-0.6
				c-0.1-0.1-0.4-0.2-0.6-0.2c-0.4,0-0.8,0.2-1.1,0.5v-0.5c0.3-0.3,0.7-0.4,1.2-0.4c0.4,0,0.7,0.1,0.9,0.3c0.2,0.2,0.3,0.5,0.3,0.9
				c0,0.3-0.1,0.6-0.2,0.8c-0.2,0.3-0.4,0.6-0.8,1l-1,1v0h2.1V123.7z"/>
			<path fill="#FFFFFF" d="M89.6,123.8c-0.4,0-0.8-0.2-1-0.6c-0.2-0.4-0.4-0.9-0.4-1.6c0-0.8,0.1-1.4,0.4-1.8
				c0.3-0.4,0.6-0.6,1.1-0.6c0.9,0,1.4,0.8,1.4,2.3c0,0.7-0.1,1.3-0.4,1.7C90.4,123.6,90.1,123.8,89.6,123.8z M89.7,119.7
				c-0.6,0-0.9,0.6-0.9,1.9c0,1.2,0.3,1.8,0.9,1.8c0.6,0,0.9-0.6,0.9-1.8C90.6,120.3,90.3,119.7,89.7,119.7z"/>
			<path fill="#FFFFFF" d="M94.6,123.7h-2.5v-0.4h1v-3.4l-1,0.3v-0.5l1.5-0.5v4.1h1V123.7z"/>
			<path fill="#FFFFFF" d="M98.3,122.6h-0.6v1.2h-0.5v-1.2h-2.1v-0.3l2-2.9h0.6v2.8h0.6V122.6z M97.2,122.1v-1.9c0-0.1,0-0.3,0-0.5
				h0c0,0.1-0.1,0.2-0.2,0.3l-1.4,2H97.2z"/>
		</g>
		<g>
			<path fill="#FFFFFF" d="M101.2,121.8h16.5"/>
			<rect x="101.2" y="121.6" fill="#FFFFFF" width="16.5" height="0.4"/>
		</g>
		<g>
			<path fill="#FFFFFF" d="M52.4,121.8h16.5"/>
			<rect x="52.4" y="121.6" fill="#FFFFFF" width="16.5" height="0.4"/>
		</g>
	</g>
	<g>
		<path fill="#FFFFFF" d="M32.1,111.1h-4.4v-2.4h1.1V101l-3,5.3h-0.9l-3-5.3v7.8H23v2.4h-4.4v-2.4h1.1v-9h-1.1v-2.2h3.5l3.2,5.8
			l3.2-5.8h3.5v2.2H31v9h1.1V111.1z"/>
		<path fill="#FFFFFF" d="M47.5,111.1h-4.2v-2.2h1.3l-0.8-2.1h-4.5l-0.8,2.1h1.3v2.2h-4.2v-2.2h0.8l4-11.4h2.2l4,11.4h0.8V111.1z
			 M43.1,104.9l-1.6-4.6h0l-1.5,4.6H43.1z"/>
		<path fill="#FFFFFF" d="M62.5,99.7h-1.1v11.4h-2.2l-4.9-9.1v6.9h1.1v2.2H51v-2.2h1.1v-9.2H51v-2.2h3.3l4.9,9.1v-6.9h-1.1v-2.2h4.4
			V99.7z"/>
		<path fill="#FFFFFF" d="M75.4,111.1h-8.9v-2.2h1.2v-9.2h-1.2v-2.2h5v2.2H70v9.2h3.2v-1.8h2.2V111.1z"/>
		<path fill="#FFFFFF" d="M90.1,99.7h-0.9l-3.6,5.2v4h1.3v2.2h-4.8v-2.2h1.2v-4l-3.6-5.2h-0.9v-2.2h4.4v2.2h-1.2l2.3,3.5l2.3-3.5
			h-1.2v-2.2h4.4V99.7z"/>
		<path fill="#FFFFFF" d="M110.6,108.9l-2.3,2.2h-4l-2.3-2.2v-9.2l2.3-2.2h4l2.3,2.2v1.8h-2.3v-1.1l-0.7-0.7h-2.6l-0.7,0.7v7.9
			l0.7,0.7h2.6l0.7-0.7v-1.1h2.3V108.9z"/>
		<path fill="#FFFFFF" d="M123.5,111.1h-8.9v-2.2h1.2v-9.2h-1.2v-2.2h5v2.2h-1.5v9.2h3.2v-1.8h2.2V111.1z"/>
		<path fill="#FFFFFF" d="M137.9,99.7h-1.1v9.3l-2.3,2.2h-3.9l-2.3-2.2v-9.3h-1.1v-2.2h4.6v2.2h-1.2v8.5l0.7,0.7h2.6l0.7-0.7v-8.5
			h-1.2v-2.2h4.6V99.7z"/>
		<path fill="#FFFFFF" d="M151.5,108.9l-2.3,2.2h-7.4v-2.2h1.2v-9.2h-1.2v-2.2h7.4l2.3,2.2v3.2l-1.4,1.2l1.4,1.3V108.9z
			 M149.1,102.5v-2.1l-0.7-0.7h-3.2v3.5h3.2L149.1,102.5z M149.1,108.3v-2.5l-0.7-0.7h-3.2v3.9h3.2L149.1,108.3z"/>
	</g>
</g>
</svg>
