<?xml version="1.0" encoding="utf-8"?>
<!-- Generator: Adobe Illustrator 17.1.0, SVG Export Plug-In . SVG Version: 6.00 Build 0)  -->
<!DOCTYPE svg PUBLIC "-//W3C//DTD SVG 1.1//EN" "http://www.w3.org/Graphics/SVG/1.1/DTD/svg11.dtd">
<svg version="1.1" id="Layer_1" xmlns="http://www.w3.org/2000/svg" xmlns:xlink="http://www.w3.org/1999/xlink" x="0px" y="0px"
	 viewBox="0 0 101.7 81.8" enable-background="new 0 0 101.7 81.8" xml:space="preserve">
<path d="M91.9,8.8c0,0-0.1-0.1-0.1-0.1c-1.4-1.5-3.3-2.4-5.5-2.4H15.4c-2.2,0-4.1,0.9-5.5,2.4c0,0-0.1,0.1-0.1,0.1
	c-1.2,1.3-2,3.1-2,5.1V68c0,4.2,3.4,7.6,7.6,7.6h70.9c4.2,0,7.6-3.4,7.6-7.6V13.9C93.9,11.9,93.1,10.2,91.9,8.8z M67.3,39l23.2-26.8
	c0.2,0.5,0.3,1.1,0.3,1.7V68c0,0.7-0.2,1.3-0.4,1.9L67.3,39z M86.3,9.3c0.8,0,1.6,0.2,2.2,0.6l-24.3,28c0,0,0,0,0,0l0,0
	c-3.5,4.1-8.1,6.3-13,6.3c0,0-0.1,0-0.1,0c-4.8,0-9.4-2.2-12.9-6.1L13.2,9.9c0.7-0.4,1.4-0.6,2.2-0.6H86.3z M11.1,69.4
	c-0.1-0.4-0.2-0.9-0.2-1.4V13.9c0-0.6,0.1-1.2,0.3-1.7l24,27L11.1,69.4z M15.4,72.5c-0.9,0-1.7-0.3-2.4-0.7l24.3-30.4
	c3.9,3.8,8.8,5.9,13.9,5.9c0,0,0.1,0,0.1,0c5.2,0,10.1-2.2,14-6l23,30.8c-0.6,0.3-1.3,0.5-2,0.5H15.4z"/>
</svg>
