<svg xmlns="http://www.w3.org/2000/svg" viewBox="0 0 101.7 81.8"><path d="M91.9 8.8l-.1-.1c-1.4-1.5-3.3-2.4-5.5-2.4H15.4c-2.2 0-4.1.9-5.5 2.4l-.1.1c-1.2 1.3-2 3.1-2 5.1V68c0 4.2 3.4 7.6 7.6 7.6h70.9c4.2 0 7.6-3.4 7.6-7.6V13.9c0-2-.8-3.7-2-5.1zM67.3 39l23.2-26.8c.2.5.3 1.1.3 1.7V68c0 .7-.2 1.3-.4 1.9L67.3 39zm19-29.7c.8 0 1.6.2 2.2.6l-24.3 28c-3.5 4.1-8.1 6.3-13 6.3h-.1c-4.8 0-9.4-2.2-12.9-6.1l-25-28.2c.7-.4 1.4-.6 2.2-.6h70.9zM11.1 69.4c-.1-.4-.2-.9-.2-1.4V13.9c0-.6.1-1.2.3-1.7l24 27-24.1 30.2zm4.3 3.1c-.9 0-1.7-.3-2.4-.7l24.3-30.4c3.9 3.8 8.8 5.9 13.9 5.9h.1c5.2 0 10.1-2.2 14-6l23 30.8c-.6.3-1.3.5-2 .5H15.4z"/></svg>