<svg xmlns="http://www.w3.org/2000/svg" viewBox="0 0 99.6 94.2"><path d="M92.6 77.5C91.3 64 79.7 53.4 66.1 53.4H34.4C20.5 53.4 8.7 63.8 7 77.6v.4c0 5.4 4.1 9.6 9.4 9.6h66.7c5.2 0 9.5-4.2 9.6-9.5-.1-.2-.1-.4-.1-.6zM66.1 57.4c.8 0 1.6.1 2.4.1-4.9 5-11.6 7.9-18.8 7.9-7.1 0-13.7-2.8-18.7-7.7 1.1-.2 2.2-.3 3.3-.3h31.8zm17 26.2H16.4c-3 0-5.4-2.4-5.4-5.5 1.1-9.1 7.4-16.5 15.7-19.4 5.8 6.8 14.1 10.7 23.1 10.7 9.1 0 17.5-4 23.3-10.9 8.4 2.7 14.8 10.3 15.6 19.5v.2c-.2 3-2.6 5.4-5.6 5.4zM49.7 49.7c11.9 0 21.6-9.7 21.6-21.6 0-11.9-9.7-21.6-21.6-21.6-11.9 0-21.6 9.7-21.6 21.6 0 12 9.7 21.6 21.6 21.6zm0-39.1c9.7 0 17.6 7.9 17.6 17.6s-7.9 17.6-17.6 17.6-17.6-7.9-17.6-17.6S40 10.6 49.7 10.6z"/></svg>