<svg xmlns="http://www.w3.org/2000/svg" viewBox="0 0 73.8 95.9"><path d="M62.6 41.1H18.8c0-1.9-.1-5.8-.1-11.6 0-9.8 8-17.8 17.8-17.8s17.8 8 17.8 17.8c0 1.1.9 2 2 2s2-.9 2-2c0-12-9.8-21.8-21.8-21.8s-21.8 9.8-21.8 21.8c0 5.8 0 9.7.1 11.6h-3.6c-2.9 0-5.2 2.3-5.2 5.2v36.5c0 2.9 2.3 5.2 5.2 5.2h51.4c2.9 0 5.2-2.3 5.2-5.2V46.4c.1-2.9-2.3-5.3-5.2-5.3zm1.3 41.8c0 .7-.6 1.2-1.2 1.2H11.2c-.7 0-1.2-.6-1.2-1.2V46.4c0-.7.5-1.2 1.2-1.2h51.4c.7 0 1.2.5 1.2 1.2v36.5z"/><path d="M36.4 51.9c-4.5 0-8.1 3.6-8.1 8.1 0 3.7 2.6 6.9 6 7.8v4c0 1.1.9 2 2 2s2-.9 2-2v-4c3.5-.9 6.2-4.1 6.2-7.8 0-4.4-3.7-8.1-8.1-8.1zm0 12.2c-2.3 0-4.1-1.8-4.1-4.1s1.8-4.1 4.1-4.1 4.1 1.8 4.1 4.1-1.9 4.1-4.1 4.1z"/></svg>