<svg xmlns="http://www.w3.org/2000/svg" viewBox="0 0 95.2 119.8"><path d="M65.3 107.1c-1.1 0-2.2-.2-3.3-.5-6.3-1.8-16.8-6.8-30.7-20.6-14-14-19-24.6-20.7-30.9-1.1-4.2.1-8.7 3.1-11.8l10.5-10.5c.8-.8 2-.8 2.8 0L44.3 50c.4.4.6.9.6 1.4s-.2 1-.6 1.4l-6 6c-1.9 1.9-1.9 5 0 6.8l14 14c.9.9 2.1 1.4 3.4 1.4 1.3 0 2.5-.5 3.4-1.4l6-6c.8-.8 2-.8 2.8 0l16.6 16.6c.8.8.8 2 0 2.8l-10.4 10.4c-2.3 2.3-5.5 3.7-8.8 3.7zM25.6 36.9L16.5 46c-2.1 2.1-2.9 5.1-2.1 7.9 1.6 5.9 6.3 15.8 19.7 29.2 13.3 13.3 23 18 28.9 19.6 2.9.8 6.2-.1 8.3-2.2l8.9-8.9-13.7-13.8-4.5 4.6C60.3 84 58.1 85 55.7 85s-4.6-.9-6.2-2.6l-14-14c-3.4-3.4-3.4-9.1 0-12.5l4.5-4.5-14.4-14.5zm24.3 9.4c-1 0-1.9-.8-2-1.8-.4-4-2.2-7.6-5-10.4-2.8-2.8-6.3-4.5-10.2-5-1.1-.1-1.9-1.1-1.7-2.2.1-1.1 1.1-1.9 2.2-1.7 4.8.6 9.1 2.7 12.5 6.1 3.4 3.4 5.6 8 6.1 12.8.1 1.1-.7 2.1-1.8 2.2h-.1zm12.7-2.1c-1 0-1.8-.7-2-1.7-.8-6.7-3.8-12.7-8.6-17.5-4.3-4.3-9.7-7.2-15.7-8.3-1.1-.2-1.8-1.3-1.6-2.3.2-1.1 1.3-1.8 2.3-1.6 6.7 1.3 12.9 4.6 17.7 9.4 5.4 5.4 8.8 12.2 9.8 19.8.1 1.1-.6 2.1-1.7 2.2h-.2z"/></svg>