<?xml version="1.0" encoding="utf-8"?>
<!-- Generator: Adobe Illustrator 17.1.0, SVG Export Plug-In . SVG Version: 6.00 Build 0)  -->
<!DOCTYPE svg PUBLIC "-//W3C//DTD SVG 1.1//EN" "http://www.w3.org/Graphics/SVG/1.1/DTD/svg11.dtd">
<svg version="1.1" id="Layer_1" xmlns="http://www.w3.org/2000/svg" xmlns:xlink="http://www.w3.org/1999/xlink" x="0px" y="0px"
	 viewBox="0 0 95.2 119.8" enable-background="new 0 0 95.2 119.8" xml:space="preserve">
<g>
	<g>
		<path d="M65.3,107.1c-1.1,0-2.2-0.2-3.3-0.5c-6.3-1.8-16.8-6.8-30.7-20.6c-14-14-19-24.6-20.7-30.9c-1.1-4.2,0.1-8.7,3.1-11.8
			l10.5-10.5c0.8-0.8,2-0.8,2.8,0L44.3,50c0.4,0.4,0.6,0.9,0.6,1.4s-0.2,1-0.6,1.4l-6,6c-1.9,1.9-1.9,5,0,6.8l14,14
			c0.9,0.9,2.1,1.4,3.4,1.4c1.3,0,2.5-0.5,3.4-1.4l6-6c0.8-0.8,2-0.8,2.8,0l16.6,16.6c0.8,0.8,0.8,2,0,2.8l-10.4,10.4
			C71.8,105.7,68.6,107.1,65.3,107.1z M25.6,36.9l-9.1,9.1c-2.1,2.1-2.9,5.1-2.1,7.9c1.6,5.9,6.3,15.8,19.7,29.2
			c13.3,13.3,23,18,28.9,19.6c2.9,0.8,6.2-0.1,8.3-2.2l8.9-8.9L66.5,77.8L62,82.4C60.3,84,58.1,85,55.7,85c-2.4,0-4.6-0.9-6.2-2.6
			l-14-14c-3.4-3.4-3.4-9.1,0-12.5l4.5-4.5L25.6,36.9z"/>
	</g>
	<g>
		<path d="M49.9,46.3c-1,0-1.9-0.8-2-1.8c-0.4-4-2.2-7.6-5-10.4c-2.8-2.8-6.3-4.5-10.2-5C31.6,29,30.8,28,31,26.9
			c0.1-1.1,1.1-1.9,2.2-1.7c4.8,0.6,9.1,2.7,12.5,6.1c3.4,3.4,5.6,8,6.1,12.8c0.1,1.1-0.7,2.1-1.8,2.2C50,46.3,50,46.3,49.9,46.3z"
			/>
	</g>
	<g>
		<path d="M62.6,44.2c-1,0-1.8-0.7-2-1.7C59.8,35.8,56.8,29.8,52,25c-4.3-4.3-9.7-7.2-15.7-8.3c-1.1-0.2-1.8-1.3-1.6-2.3
			c0.2-1.1,1.3-1.8,2.3-1.6c6.7,1.3,12.9,4.6,17.7,9.4c5.4,5.4,8.8,12.2,9.8,19.8c0.1,1.1-0.6,2.1-1.7,2.2
			C62.8,44.2,62.7,44.2,62.6,44.2z"/>
	</g>
</g>
</svg>
