<svg xmlns="http://www.w3.org/2000/svg" viewBox="0 0 299.3 299.3"><circle cx="149.7" cy="149.7" r="132.3" opacity=".21"/><path fill="#FFF" d="M149.7 286c-75.2 0-136.3-61.2-136.3-136.3S74.5 13.3 149.7 13.3 286 74.5 286 149.7 224.8 286 149.7 286zm0-264.7c-70.8 0-128.3 57.6-128.3 128.3S78.9 278 149.7 278 278 220.4 278 149.7 220.4 21.3 149.7 21.3z"/><path fill="#FFF" d="M194.9 143.6l-60.5-34.9c-1.1-.6-2.4-1-3.7-1-4.1 0-7.3 3.3-7.3 7.3v69.8c0 4.1 3.3 7.3 7.3 7.3 1.3 0 2.5-.3 3.7-1l60.5-34.9c2.3-1.3 3.7-3.7 3.7-6.4s-1.4-4.8-3.7-6.2z"/></svg>