<?xml version="1.0" encoding="utf-8"?>
<!-- Generator: Adobe Illustrator 17.1.0, SVG Export Plug-In . SVG Version: 6.00 Build 0)  -->
<!DOCTYPE svg PUBLIC "-//W3C//DTD SVG 1.1//EN" "http://www.w3.org/Graphics/SVG/1.1/DTD/svg11.dtd">
<svg version="1.1" id="Layer_1" xmlns="http://www.w3.org/2000/svg" xmlns:xlink="http://www.w3.org/1999/xlink" x="0px" y="0px"
	 viewBox="0 0 299.3 299.3" enable-background="new 0 0 299.3 299.3" xml:space="preserve">
<g>
	<g opacity="0.21">
		<circle cx="149.7" cy="149.7" r="132.3"/>
	</g>
	<g>
		<path fill="#FFFFFF" d="M149.7,286c-75.2,0-136.3-61.2-136.3-136.3S74.5,13.3,149.7,13.3S286,74.5,286,149.7S224.8,286,149.7,286z
			 M149.7,21.3c-70.8,0-128.3,57.6-128.3,128.3S78.9,278,149.7,278S278,220.4,278,149.7S220.4,21.3,149.7,21.3z"/>
	</g>
	<g>
		<path fill="#FFFFFF" d="M194.9,143.6l-60.5-34.9c-1.1-0.6-2.4-1-3.7-1c-4.1,0-7.3,3.3-7.3,7.3v69.8c0,4.1,3.3,7.3,7.3,7.3
			c1.3,0,2.5-0.3,3.7-1l60.5-34.9c2.3-1.3,3.7-3.7,3.7-6.4S197.2,145,194.9,143.6z"/>
	</g>
</g>
</svg>
