<svg xmlns="http://www.w3.org/2000/svg" viewBox="0 0 92 89.5"><path d="M45.8 33.6c-6.2 0-11.3 5.1-11.3 11.3 0 6.2 5.1 11.3 11.3 11.3s11.3-5.1 11.3-11.3c0-6.3-5.1-11.3-11.3-11.3zm0 17.6c-3.5 0-6.3-2.8-6.3-6.3s2.8-6.3 6.3-6.3 6.3 2.8 6.3 6.3c0 3.4-2.8 6.3-6.3 6.3z"/><path d="M86.5 33.4c-.3-1.2-1.5-2-2.8-1.8-.4.1-.8.1-1.2.1-3 0-5.7-1.6-7.2-4.1-1.7-2.9-1.4-6.5.6-9.2.8-1 .7-2.4-.2-3.3C70.3 9.6 63.5 5.8 56 4c-1.2-.3-2.4.3-2.9 1.4-1.3 3-4.3 5-7.6 5-3.2 0-6.2-1.9-7.5-4.8-.5-1.1-1.7-1.7-2.9-1.4-7.3 2-14 5.9-19.3 11.5-.8.8-.9 2.2-.3 3.1 1.8 2.7 1.9 6 .3 8.8-1.6 2.7-4.6 4.3-7.7 4.1-1.2-.1-2.2.7-2.6 1.8C4.5 37.2 4 41 4 44.8c0 3.8.5 7.6 1.5 11.2.3 1.1 1.4 1.9 2.6 1.8 3.1-.2 6.1 1.4 7.7 4.1 1.6 2.8 1.5 6.1-.3 8.8-.7 1-.5 2.3.3 3.1 5.3 5.5 12 9.5 19.3 11.5 1.2.3 2.4-.3 2.9-1.4 1.4-2.9 4.3-4.8 7.5-4.8 3.3 0 6.3 2 7.6 5 .4.9 1.3 1.5 2.3 1.5.2 0 .4 0 .6-.1 7.4-1.8 14.2-5.7 19.7-11.1.9-.9 1-2.3.2-3.3-2.1-2.7-2.3-6.3-.6-9.2 1.5-2.6 4.2-4.1 7.2-4.1.4 0 .8 0 1.2.1 1.3.2 2.4-.6 2.8-1.8 1-3.7 1.5-7.5 1.5-11.3 0-3.9-.5-7.7-1.5-11.4zm-4.4 19.4c-4.6.1-8.9 2.6-11.2 6.6-2.3 4-2.4 8.9-.2 12.9-4 3.6-8.8 6.3-14 7.9-2.4-3.8-6.6-6.1-11.2-6.1-4.4 0-8.5 2.2-11 5.8-5.2-1.7-9.9-4.5-13.9-8.3 1.8-3.9 1.7-8.4-.5-12.3-2.1-3.7-6-6.2-10.2-6.6-.6-2.5-.9-5.2-.9-7.9s.3-5.5.9-8.1c4.2-.4 8.1-2.9 10.2-6.6 2.2-3.8 2.4-8.3.5-12.2 4-3.8 8.7-6.6 13.9-8.3 2.5 3.6 6.6 5.8 11 5.8 4.5 0 8.7-2.3 11.2-6.1 5.2 1.6 10 4.3 14 7.9-2.1 4-2.1 8.8.3 12.8 2.3 4 6.6 6.5 11.2 6.6.6 2.6.9 5.3.9 8.1-.1 2.8-.4 5.5-1 8.1z"/></svg>