<?xml version="1.0" encoding="utf-8"?>
<!-- Generator: Adobe Illustrator 17.1.0, SVG Export Plug-In . SVG Version: 6.00 Build 0)  -->
<!DOCTYPE svg PUBLIC "-//W3C//DTD SVG 1.1//EN" "http://www.w3.org/Graphics/SVG/1.1/DTD/svg11.dtd">
<svg version="1.1" id="Layer_1" xmlns="http://www.w3.org/2000/svg" xmlns:xlink="http://www.w3.org/1999/xlink" x="0px" y="0px"
	 viewBox="0 0 92 89.5" enable-background="new 0 0 92 89.5" xml:space="preserve">
<g>
	<path d="M45.8,33.6c-6.2,0-11.3,5.1-11.3,11.3c0,6.2,5.1,11.3,11.3,11.3s11.3-5.1,11.3-11.3C57.1,38.6,52,33.6,45.8,33.6z
		 M45.8,51.2c-3.5,0-6.3-2.8-6.3-6.3c0-3.5,2.8-6.3,6.3-6.3s6.3,2.8,6.3,6.3C52.1,48.3,49.3,51.2,45.8,51.2z"/>
	<path d="M86.5,33.4c-0.3-1.2-1.5-2-2.8-1.8c-0.4,0.1-0.8,0.1-1.2,0.1c-3,0-5.7-1.6-7.2-4.1c-1.7-2.9-1.4-6.5,0.6-9.2
		c0.8-1,0.7-2.4-0.2-3.3C70.3,9.6,63.5,5.8,56,4c-1.2-0.3-2.4,0.3-2.9,1.4c-1.3,3-4.3,5-7.6,5c-3.2,0-6.2-1.9-7.5-4.8
		c-0.5-1.1-1.7-1.7-2.9-1.4c-7.3,2-14,5.9-19.3,11.5c-0.8,0.8-0.9,2.2-0.3,3.1c1.8,2.7,1.9,6,0.3,8.8c-1.6,2.7-4.6,4.3-7.7,4.1
		c-1.2-0.1-2.2,0.7-2.6,1.8C4.5,37.2,4,41,4,44.8c0,3.8,0.5,7.6,1.5,11.2c0.3,1.1,1.4,1.9,2.6,1.8c3.1-0.2,6.1,1.4,7.7,4.1
		c1.6,2.8,1.5,6.1-0.3,8.8c-0.7,1-0.5,2.3,0.3,3.1c5.3,5.5,12,9.5,19.3,11.5c1.2,0.3,2.4-0.3,2.9-1.4c1.4-2.9,4.3-4.8,7.5-4.8
		c3.3,0,6.3,2,7.6,5c0.4,0.9,1.3,1.5,2.3,1.5c0.2,0,0.4,0,0.6-0.1c7.4-1.8,14.2-5.7,19.7-11.1c0.9-0.9,1-2.3,0.2-3.3
		c-2.1-2.7-2.3-6.3-0.6-9.2c1.5-2.6,4.2-4.1,7.2-4.1c0.4,0,0.8,0,1.2,0.1c1.3,0.2,2.4-0.6,2.8-1.8c1-3.7,1.5-7.5,1.5-11.3
		C88,40.9,87.5,37.1,86.5,33.4z M82.1,52.8c-4.6,0.1-8.9,2.6-11.2,6.6c-2.3,4-2.4,8.9-0.2,12.9c-4,3.6-8.8,6.3-14,7.9
		c-2.4-3.8-6.6-6.1-11.2-6.1c-4.4,0-8.5,2.2-11,5.8c-5.2-1.7-9.9-4.5-13.9-8.3c1.8-3.9,1.7-8.4-0.5-12.3c-2.1-3.7-6-6.2-10.2-6.6
		C9.3,50.2,9,47.5,9,44.8c0-2.7,0.3-5.5,0.9-8.1c4.2-0.4,8.1-2.9,10.2-6.6c2.2-3.8,2.4-8.3,0.5-12.2c4-3.8,8.7-6.6,13.9-8.3
		c2.5,3.6,6.6,5.8,11,5.8c4.5,0,8.7-2.3,11.2-6.1c5.2,1.6,10,4.3,14,7.9c-2.1,4-2.1,8.8,0.3,12.8c2.3,4,6.6,6.5,11.2,6.6
		c0.6,2.6,0.9,5.3,0.9,8.1C83,47.5,82.7,50.2,82.1,52.8z"/>
</g>
</svg>
