<?xml version="1.0" encoding="utf-8"?>
<!-- Generator: Adobe Illustrator 17.1.0, SVG Export Plug-In . SVG Version: 6.00 Build 0)  -->
<!DOCTYPE svg PUBLIC "-//W3C//DTD SVG 1.1//EN" "http://www.w3.org/Graphics/SVG/1.1/DTD/svg11.dtd">
<svg version="1.1" id="Layer_1" xmlns="http://www.w3.org/2000/svg" xmlns:xlink="http://www.w3.org/1999/xlink" x="0px" y="0px"
	 viewBox="0 0 81.8 82.7" enable-background="new 0 0 81.8 82.7" xml:space="preserve">
<g>
	<path d="M77.8,61.2c-0.3-1.1-1.3-1.7-2.4-1.5L70.1,61c4.5-6.1,6.9-13.5,6.9-21.2c0-9.6-3.7-18.6-10.5-25.4c-9-9-21.7-12.5-34-9.5
		c-1.1,0.3-1.7,1.3-1.5,2.4c0.3,1.1,1.4,1.7,2.4,1.5c11-2.7,22.3,0.4,30.2,8.4c6,6,9.3,14,9.3,22.5c0,6.8-2.1,13.2-6,18.6l0.4-5.1
		c0.1-1.1-0.7-2.1-1.8-2.2c-1.1-0.1-2.1,0.7-2.2,1.8l-1,11.3c-0.1,0.6,0.2,1.3,0.7,1.7c0.4,0.3,0.8,0.5,1.3,0.5c0.2,0,0.3,0,0.5-0.1
		l11.4-2.8C77.4,63.3,78.1,62.3,77.8,61.2z"/>
	<path d="M48.1,73.8c-10.9,2.6-22.1-0.5-30-8.4C7,54.2,5.8,36.8,14.7,24.3l-0.3,5c-0.1,1.1,0.8,2.1,1.9,2.1c0,0,0.1,0,0.1,0
		c1,0,1.9-0.8,2-1.9l0.8-11.5c0-0.6-0.2-1.3-0.7-1.7c-0.5-0.4-1.2-0.6-1.8-0.4l-11.2,3c-1.1,0.3-1.7,1.4-1.4,2.4
		c0.3,1.1,1.4,1.7,2.4,1.4l5.4-1.4c-10.4,14-9.2,34,3.5,46.7c6.8,6.8,15.9,10.5,25.3,10.5c2.8,0,5.7-0.3,8.5-1
		c1.1-0.3,1.7-1.3,1.5-2.4C50.3,74.2,49.2,73.5,48.1,73.8z"/>
</g>
</svg>
