<svg xmlns="http://www.w3.org/2000/svg" viewBox="0 0 81.8 82.7"><path d="M77.8 61.2c-.3-1.1-1.3-1.7-2.4-1.5L70.1 61c4.5-6.1 6.9-13.5 6.9-21.2 0-9.6-3.7-18.6-10.5-25.4-9-9-21.7-12.5-34-9.5-1.1.3-1.7 1.3-1.5 2.4.3 1.1 1.4 1.7 2.4 1.5 11-2.7 22.3.4 30.2 8.4 6 6 9.3 14 9.3 22.5 0 6.8-2.1 13.2-6 18.6l.4-5.1c.1-1.1-.7-2.1-1.8-2.2-1.1-.1-2.1.7-2.2 1.8l-1 11.3c-.1.6.2 1.3.7 1.7.4.3.8.5 1.3.5.2 0 .3 0 .5-.1l11.4-2.8c1.2-.1 1.9-1.1 1.6-2.2zM48.1 73.8c-10.9 2.6-22.1-.5-30-8.4C7 54.2 5.8 36.8 14.7 24.3l-.3 5c-.1 1.1.8 2.1 1.9 2.1h.1c1 0 1.9-.8 2-1.9l.8-11.5c0-.6-.2-1.3-.7-1.7-.5-.4-1.2-.6-1.8-.4l-11.2 3c-1.1.3-1.7 1.4-1.4 2.4.3 1.1 1.4 1.7 2.4 1.4l5.4-1.4c-10.4 14-9.2 34 3.5 46.7 6.8 6.8 15.9 10.5 25.3 10.5 2.8 0 5.7-.3 8.5-1 1.1-.3 1.7-1.3 1.5-2.4-.4-.9-1.5-1.6-2.6-1.3z"/></svg>