<svg xmlns="http://www.w3.org/2000/svg" viewBox="0 0 104.6 91.4"><path d="M93.3 15.3L81.7 8.4c-.8-.5-1.7-.7-2.6-.7-2.9 0-5.2 2.3-5.2 5.2v4.7h-34c-17.2 0-31.1 14-31.1 31.1v3.9c0 17.2 14 31.1 31.1 31.1 1.1 0 2-.9 2-2s-.9-2-2-2c-15 0-27.1-12.2-27.1-27.1v-3.9c0-15 12.2-27.1 27.1-27.1h33.9v4.7c0 2.9 2.3 5.2 5.2 5.2.9 0 1.8-.2 2.5-.7l11.6-6.6c1.6-.9 2.6-2.6 2.6-4.5.2-1.8-.8-3.5-2.4-4.4zm-2.1 5.4l-11.6 6.6c-.2.1-.4.2-.6.2-.6 0-1.2-.4-1.2-1.2V12.9c0-.7.6-1.2 1.2-1.2.2 0 .4.1.6.2l11.6 6.9c.5.3.6.8.6 1s0 .6-.6.9z"/></svg>