<svg xmlns="http://www.w3.org/2000/svg" viewBox="0 0 92.7 142.9"><path fill="#6D6E71" d="M46.7 133.6H46c-22 0-40-17.9-40-40V49.3c0-22 17.9-40 40-40h.7c22 0 40 17.9 40 40v44.4c0 22-17.9 39.9-40 39.9zM46 18.3c-17.1 0-31 13.9-31 31v44.4c0 17.1 13.9 31 31 31h.7c17.1 0 31-13.9 31-31V49.3c0-17.1-13.9-31-31-31H46z"/><g fill="#FFF"><path d="M46.8 65.1h-.1c-3.3 0-5.9-2.6-5.9-5.9V59c0-3.3 2.6-5.9 5.9-5.9h.1c3.3 0 5.9 2.6 5.9 5.9v.2c0 3.2-2.6 5.9-5.9 5.9z"/><path d="M46.8 68.1h-.1c-4.9 0-8.9-4-8.9-8.9V59c0-4.9 4-8.9 8.9-8.9h.1c4.9 0 8.9 4 8.9 8.9v.2c0 4.9-4 8.9-8.9 8.9zM46.7 56c-1.6 0-2.9 1.3-2.9 2.9v.2c0 1.6 1.3 2.9 2.9 2.9h.1c1.6 0 2.9-1.3 2.9-2.9v-.2c0-1.6-1.3-2.9-2.9-2.9h-.1z"/></g></svg>