<svg xmlns="http://www.w3.org/2000/svg" viewBox="0 0 97.6 99.8"><g fill="#FFF"><circle cx="28.5" cy="88.3" r="5.1"/><circle cx="76.5" cy="88.3" r="5.1"/><path d="M87.4 47.2l3.9-25.6c.1-.8-.1-1.7-.6-2.3-.5-.7-1.3-1.1-2.2-1.1l-66.9-3.5c-.6-2.6-3-8.4-12.5-8.4-1.7 0-3 1.3-3 3s1.3 3 3 3c5.8 0 6.4 2.8 6.7 3.8.1.2.2.9.4 1.9v.2l7.4 39.1.6 3c.7 3.8 1.2 6.6 1.4 7.6 1.1 5.7 5.1 9.4 10.1 9.4h49c1.7 0 3-1.3 3-3s-1.3-3-3-3h-49c-2.1 0-3.7-1.6-4.2-4.5-.2-1-.7-3.7-1.4-7.4L85 49.7c1.3-.2 2.3-1.2 2.4-2.5zm-5.6-3L29 53.3c-2.5-13.4-4.8-25.6-6.2-32.6l62.1 3.2-3.1 20.3z"/></g></svg>