<?xml version="1.0" encoding="utf-8"?>
<!-- Generator: Adobe Illustrator 17.1.0, SVG Export Plug-In . SVG Version: 6.00 Build 0)  -->
<!DOCTYPE svg PUBLIC "-//W3C//DTD SVG 1.1//EN" "http://www.w3.org/Graphics/SVG/1.1/DTD/svg11.dtd">
<svg version="1.1" id="Layer_1" xmlns="http://www.w3.org/2000/svg" xmlns:xlink="http://www.w3.org/1999/xlink" x="0px" y="0px"
	 viewBox="0 0 87.5 95.5" enable-background="new 0 0 87.5 95.5" xml:space="preserve">
<g>
	<circle cx="15.4" cy="81.9" r="5.1"/>
	<circle cx="63.3" cy="81.9" r="5.1"/>
	<path d="M75.7,40.9l3.9-25.6c0.2-1.3-0.2-2.5-1-3.5c-0.8-1-2-1.6-3.3-1.7L43.9,8.5c-0.1,3.1-0.6,6.1-1.4,8.9L70,18.9l-2.7,17.5
		L17,45.1c-0.1-0.6-0.2-1.1-0.3-1.6c-2.8,0.8-5.8,1.4-8.9,1.5L9,51.2v0c0.2,1,0.4,1.9,0.5,2.8c0.7,3.8,1.2,6.6,1.4,7.6
		c1.2,6.5,5.8,10.6,11.6,10.6h49c2.5,0,4.5-2,4.5-4.5s-2-4.5-4.5-4.5h-49c-1.8,0-2.5-1.8-2.7-3.3c-0.2-0.8-0.6-3-1.1-5.9l53.4-9.3
		C74,44.4,75.4,42.8,75.7,40.9z"/>
</g>
</svg>
