<svg xmlns="http://www.w3.org/2000/svg" viewBox="0 0 87.5 95.5"><circle cx="15.4" cy="81.9" r="5.1"/><circle cx="63.3" cy="81.9" r="5.1"/><path d="M75.7 40.9l3.9-25.6c.2-1.3-.2-2.5-1-3.5s-2-1.6-3.3-1.7L43.9 8.5c-.1 3.1-.6 6.1-1.4 8.9L70 18.9l-2.7 17.5L17 45.1c-.1-.6-.2-1.1-.3-1.6-2.8.8-5.8 1.4-8.9 1.5L9 51.2c.2 1 .4 1.9.5 2.8.7 3.8 1.2 6.6 1.4 7.6 1.2 6.5 5.8 10.6 11.6 10.6h49c2.5 0 4.5-2 4.5-4.5s-2-4.5-4.5-4.5h-49c-1.8 0-2.5-1.8-2.7-3.3-.2-.8-.6-3-1.1-5.9l53.4-9.3c1.9-.3 3.3-1.9 3.6-3.8z"/></svg>