<svg xmlns="http://www.w3.org/2000/svg" viewBox="0 0 102.8 95.6"><g fill="#FFF"><path d="M93.1 44.4H51l5.6-4c1.3-1 1.7-2.8.7-4.2-1-1.3-2.8-1.7-4.2-.7L39.9 45l-.1.1c-.1.1-.3.2-.4.3-.1.1-.1.1-.1.2-.1.1-.2.2-.2.4 0 .1-.1.1-.1.2-.1.1-.1.3-.2.4 0 .1 0 .1-.1.2 0 .2-.1.4-.1.7 0 .2 0 .4.1.7 0 .1 0 .1.1.2 0 .2.1.3.2.4 0 .1.1.1.1.2.1.1.2.2.2.4 0 .1.1.1.1.2.1.1.2.2.4.3l.1.1 13.2 9.5c.5.4 1.1.6 1.7.6.9 0 1.9-.4 2.4-1.3 1-1.3.7-3.2-.7-4.2l-5.6-4H93c1.7 0 3-1.3 3-3s-1.2-3.2-2.9-3.2z"/><path d="M72.1 75.9c-1.7 0-3 1.3-3 3 0 2.4-2 4.4-4.4 4.4H17.1c-2.4 0-4.4-2-4.4-4.4V16.6c0-2.4 2-4.4 4.4-4.4h47.6c2.4 0 4.4 2 4.4 4.4 0 1.7 1.3 3 3 3s3-1.3 3-3c0-5.8-4.7-10.4-10.4-10.4H17.1c-5.8 0-10.4 4.7-10.4 10.4v62.3c0 5.8 4.7 10.4 10.4 10.4h47.6c5.8 0 10.4-4.7 10.4-10.4 0-1.7-1.3-3-3-3z"/></g></svg>