<?xml version="1.0" encoding="utf-8"?>
<!-- Generator: Adobe Illustrator 17.1.0, SVG Export Plug-In . SVG Version: 6.00 Build 0)  -->
<!DOCTYPE svg PUBLIC "-//W3C//DTD SVG 1.1//EN" "http://www.w3.org/Graphics/SVG/1.1/DTD/svg11.dtd">
<svg version="1.1" id="Layer_1" xmlns="http://www.w3.org/2000/svg" xmlns:xlink="http://www.w3.org/1999/xlink" x="0px" y="0px"
	 viewBox="0 0 102.9 95.7" enable-background="new 0 0 102.9 95.7" xml:space="preserve">
<g>
	<path d="M95.9,48.8c0.1-0.1,0.1-0.3,0.2-0.4c0-0.1,0-0.1,0.1-0.2c0-0.2,0.1-0.4,0.1-0.6c0,0,0,0,0,0c0,0,0,0,0,0c0,0,0,0,0,0
		c0-0.2,0-0.4-0.1-0.7c0-0.1,0-0.1-0.1-0.2c0-0.2-0.1-0.3-0.2-0.4c0-0.1-0.1-0.1-0.1-0.2c-0.1-0.1-0.2-0.2-0.2-0.4
		c0-0.1-0.1-0.1-0.1-0.2c-0.1-0.1-0.2-0.2-0.4-0.3c0,0-0.1-0.1-0.1-0.1l-13.2-9.5c-1.3-1-3.2-0.7-4.2,0.7c-1,1.3-0.7,3.2,0.7,4.2
		l5.6,4H41.7c-1.7,0-3,1.3-3,3s1.3,3,3,3h42.1l-5.6,4c-1.3,1-1.7,2.8-0.7,4.2c0.6,0.8,1.5,1.3,2.4,1.3c0.6,0,1.2-0.2,1.7-0.6
		l13.3-9.5c0,0,0.1-0.1,0.1-0.1c0.1-0.1,0.3-0.2,0.4-0.3c0.1-0.1,0.1-0.1,0.1-0.2c0.1-0.1,0.2-0.2,0.2-0.4
		C95.8,48.9,95.8,48.8,95.9,48.8z"/>
	<path d="M72.2,76c-1.7,0-3,1.3-3,3c0,2.4-2,4.4-4.4,4.4H17.2c-2.4,0-4.4-2-4.4-4.4V16.7c0-2.4,2-4.4,4.4-4.4h47.6
		c2.4,0,4.4,2,4.4,4.4c0,1.7,1.3,3,3,3s3-1.3,3-3c0-5.8-4.7-10.4-10.4-10.4H17.2c-5.8,0-10.4,4.7-10.4,10.4V79
		c0,5.8,4.7,10.4,10.4,10.4h47.6c5.8,0,10.4-4.7,10.4-10.4C75.2,77.3,73.8,76,72.2,76z"/>
</g>
</svg>
