<svg xmlns="http://www.w3.org/2000/svg" viewBox="0 0 102.9 95.7"><path d="M95.9 48.8c.1-.1.1-.3.2-.4 0-.1 0-.1.1-.2 0-.2.1-.4.1-.6 0-.2 0-.4-.1-.7 0-.1 0-.1-.1-.2 0-.2-.1-.3-.2-.4 0-.1-.1-.1-.1-.2-.1-.1-.2-.2-.2-.4 0-.1-.1-.1-.1-.2-.1-.1-.2-.2-.4-.3l-.1-.1-13.2-9.5c-1.3-1-3.2-.7-4.2.7-1 1.3-.7 3.2.7 4.2l5.6 4H41.7c-1.7 0-3 1.3-3 3s1.3 3 3 3h42.1l-5.6 4c-1.3 1-1.7 2.8-.7 4.2.6.8 1.5 1.3 2.4 1.3.6 0 1.2-.2 1.7-.6l13.3-9.5.1-.1c.1-.1.3-.2.4-.3.1-.1.1-.1.1-.2.1-.1.2-.2.2-.4.1 0 .1-.1.2-.1z"/><path d="M72.2 76c-1.7 0-3 1.3-3 3 0 2.4-2 4.4-4.4 4.4H17.2c-2.4 0-4.4-2-4.4-4.4V16.7c0-2.4 2-4.4 4.4-4.4h47.6c2.4 0 4.4 2 4.4 4.4 0 1.7 1.3 3 3 3s3-1.3 3-3c0-5.8-4.7-10.4-10.4-10.4H17.2C11.4 6.3 6.8 11 6.8 16.7V79c0 5.8 4.7 10.4 10.4 10.4h47.6c5.8 0 10.4-4.7 10.4-10.4 0-1.7-1.4-3-3-3z"/></svg>