<?xml version="1.0" encoding="utf-8"?>
<!-- Generator: Adobe Illustrator 17.1.0, SVG Export Plug-In . SVG Version: 6.00 Build 0)  -->
<!DOCTYPE svg PUBLIC "-//W3C//DTD SVG 1.1//EN" "http://www.w3.org/Graphics/SVG/1.1/DTD/svg11.dtd">
<svg version="1.1" id="Layer_1" xmlns="http://www.w3.org/2000/svg" xmlns:xlink="http://www.w3.org/1999/xlink" x="0px" y="0px"
	 viewBox="0 0 102.8 95.6" enable-background="new 0 0 102.8 95.6" xml:space="preserve">
<g>
	<path fill="#FFFFFF" d="M93.1,44.4H51l5.6-4c1.3-1,1.7-2.8,0.7-4.2c-1-1.3-2.8-1.7-4.2-0.7L39.9,45c0,0-0.1,0.1-0.1,0.1c-0.1,0.1-0.3,0.2-0.4,0.3
		c-0.1,0.1-0.1,0.1-0.1,0.2c-0.1,0.1-0.2,0.2-0.2,0.4c0,0.1-0.1,0.1-0.1,0.2c-0.1,0.1-0.1,0.3-0.2,0.4c0,0.1,0,0.1-0.1,0.2
		c0,0.2-0.1,0.4-0.1,0.7c0,0,0,0,0,0c0,0,0,0,0,0c0,0,0,0,0,0c0,0.2,0,0.4,0.1,0.7c0,0.1,0,0.1,0.1,0.2c0,0.2,0.1,0.3,0.2,0.4
		c0,0.1,0.1,0.1,0.1,0.2c0.1,0.1,0.2,0.2,0.2,0.4c0,0.1,0.1,0.1,0.1,0.2c0.1,0.1,0.2,0.2,0.4,0.3c0,0,0.1,0.1,0.1,0.1l13.2,9.5
		c0.5,0.4,1.1,0.6,1.7,0.6c0.9,0,1.9-0.4,2.4-1.3c1-1.3,0.7-3.2-0.7-4.2l-5.6-4h42.1c1.7,0,3-1.3,3-3S94.8,44.4,93.1,44.4z"/>
	<path fill="#FFFFFF" d="M72.1,75.9c-1.7,0-3,1.3-3,3c0,2.4-2,4.4-4.4,4.4H17.1c-2.4,0-4.4-2-4.4-4.4V16.6c0-2.4,2-4.4,4.4-4.4h47.6
		c2.4,0,4.4,2,4.4,4.4c0,1.7,1.3,3,3,3s3-1.3,3-3c0-5.8-4.7-10.4-10.4-10.4H17.1c-5.8,0-10.4,4.7-10.4,10.4v62.3
		c0,5.8,4.7,10.4,10.4,10.4h47.6c5.8,0,10.4-4.7,10.4-10.4C75.1,77.2,73.8,75.9,72.1,75.9z"/>
</g>
</svg>
