<svg xmlns="http://www.w3.org/2000/svg" viewBox="0 0 42.4 62.4"><path d="M37.4 51.6c-1 .6-2.4 1.2-4.2 1.7-1.8.5-4.1.8-6.9.8-4.2 0-7.5-1.1-9.8-3.2-2.2-2.2-3.3-5.1-3.3-9v-.6h21.7c1.1 0 2-.9 2-2s-.9-2-2-2h-21c.2-.4.3-.8.5-1.2.9-1.7 2.1-3.3 3.4-4.7 1.1-1.1 2.2-2 3.4-3h13.6c1.1 0 2-.9 2-2s-.9-2-2-2h-8.3c.3-.2.6-.5.9-.7 1.6-1.3 3-2.7 4.1-4.2 1.3-1.7 1.9-3.7 1.9-5.9 0-2.6-.9-4.7-2.5-6.4-1.7-1.7-4.2-2.6-7.5-2.6-2.4 0-4.5.3-6.4.8-1.9.5-3.3 1.1-4.4 1.7l2.1 3.4c.7-.5 1.9-.9 3.4-1.3s3.3-.6 5.4-.6c2.2 0 3.7.5 4.6 1.4.9 1 1.4 2.1 1.4 3.6 0 1.3-.4 2.5-1.1 3.5-.9 1.2-2.1 2.4-3.4 3.5-1.5 1.2-3.1 2.4-4.8 3.6-.1.1-.2.1-.3.2H5c-1.1 0-2 .9-2 2s.9 2 2 2h10.3s-.1.1-.2.1c-1.6 1.6-3 3.5-4.1 5.6-.5 1-.9 2-1.2 3.1H5c-1.1 0-2 .9-2 2s.9 2 2 2h4.3v.6c0 5 1.5 9 4.6 11.9 3 2.9 7.2 4.3 12.5 4.3 3.2 0 5.9-.3 8-.9 2.1-.6 3.8-1.3 5.2-2.1l-2.2-3.4z"/></svg>