<svg xmlns="http://www.w3.org/2000/svg" viewBox="0 0 134.7 91.4"><path d="M126.5 44.6c-1-1.6-26.7-39.5-59.1-39.5S9.3 43 8.2 44.6l-.7 1.1.7 1.1c1.1 1.6 26.7 39.5 59.2 39.5s58.1-37.9 59.2-39.5l.7-1.1-.8-1.1zM67.4 82.3c-27.3 0-50.6-30.4-55.1-36.6C16.8 39.4 40 9.1 67.4 9.1c27.3 0 50.6 30.4 55.1 36.6-4.6 6.2-27.8 36.6-55.1 36.6z"/><path d="M67.4 21.8c-12.8 0-23.3 10.4-23.3 23.3 0 12.8 10.4 23.3 23.3 23.3S90.7 58 90.7 45.1c0-12.8-10.5-23.3-23.3-23.3zm0 42.6c-10.6 0-19.3-8.7-19.3-19.3 0-10.6 8.7-19.3 19.3-19.3s19.3 8.7 19.3 19.3c0 10.6-8.7 19.3-19.3 19.3z"/><path d="M59.5 30.2c-3.3 0-5.9 2.6-5.9 5.9 0 3.3 2.6 5.9 5.9 5.9 3.3 0 5.9-2.6 5.9-5.9-.1-3.2-2.7-5.9-5.9-5.9zm0 7.8c-1 0-1.9-.9-1.9-1.9 0-1 .9-1.9 1.9-1.9s1.9.9 1.9 1.9c-.1 1.1-.9 1.9-1.9 1.9z"/></svg>