<svg xmlns="http://www.w3.org/2000/svg" viewBox="0 0 595.3 841.9"><path d="M0 258.3c3.3-2.6 7.3-4.6 12.2-5.8 4.6-1.4 8.7-1.9 12.2-1.9h4.4c3.3 0 7.2.2 11.7.5 7.2.4 12.4.5 15.7.5 1.9 0 8.2-.4 18.6-1 5.3-.4 9.9-.4 14.1-.3 4.3.2 8 .3 11.2.3 6.5.7 11.7 1.9 15.7 3.9 1.9 1 4.1 3.1 6.3 6.3 2.3 3.3 4.2 6.3 5.6 9.2 1.5 2.9 3.3 7.1 5.6 12.5s3.9 8.9 4.9 10.5c12.4 26.7 27.6 53.2 45.9 79.6.7 1 1.8 2.8 3.4 5.3 1.7 2.6 3 4.7 4.2 6.1s2.6 3.3 4.4 5.6c1.8 2.3 3.5 4.1 5.2 5.3 1.7 1.4 3.3 2.7 5.2 4.2 1.8 1.5 3.7 2.3 5.6 2.7 1.9.4 3.9.4 5.8 0 9.1-1.7 14.1-20.6 15.2-57.1.4-6.2.5-11.9.5-17.1 0-24-2.4-40.7-7.3-49.8-1.9-3.6-4.5-6.4-7.6-8.6-3.1-2.1-7.1-4.1-12-5.8s-8.7-3.5-11.2-5.2c4.6-9.1 12.5-15.2 24.1-18.1 11.6-2.9 27.2-4.4 47.1-4.4h25.9s4.3.1 12.6.3c8.5.2 12.8.7 13.1 1.5l10.7 2.7s3.2 1.5 9.5 4.4 8.4 5.3 6.1 6.8c2.9 5.8 4.8 12.6 5.3 20.5 0 2.3.2 4.6.5 6.8 0 6.5-.5 15-1.5 25.4-1.4 13.6-1.9 22.1-1.9 25.4-1 7.5-1.5 15-1.5 22.5 0 5.8.4 12.1 1 18.6 1.4 14.3 6.2 24.2 14.6 29.8 2.9-.4 5.6-1 8.1-1.9 2.4-1 5-2.8 7.6-5.3 2.6-2.6 4.4-4.5 5.3-5.6 1-1.2 3-3.8 6.1-8.1 3.1-4.3 4.8-6.5 5.2-6.8 15.3-20.1 30.6-46.7 45.9-79.6l4.4-11s1.8-4.3 5.6-12.9 5.7-11.8 5.8-9.5c.2 2.3 2.7.1 7.6-6.6 5.3-2.3 11.4-3.4 18.6-3.4h4.4c6.5 0 14 .4 22.5 1 10.4.7 18.1 1 23 1 2.9 0 7.4-.2 13.4-.5 6-.4 11.3-.6 15.9-.8 4.6-.2 9.3-.1 14.4.3s9.1 1.4 12.5 2.9c3.3 1.6 5.5 3.8 6.8 6.3 1 1.9 1.5 4.1 1.5 6.3 0 9.4-5.7 23.5-17.1 42.4-5.5 9.4-11.1 18-16.8 25.6-5.7 7.7-13 17.1-22.2 28.3-9.1 11.2-15.2 18.8-18.1 22.7-.7.7-2.9 3.6-6.8 8.8-3.9 5.3-6.7 9.1-8.6 11.7-1.8 2.6-3.7 6.2-5.6 11-1.9 4.8-2.8 9-2.4 12.9 0 2.6.5 5.1 1.5 7.3 1 2.3 2.5 4.8 4.7 7.3 2.1 2.6 3.8 4.6 4.9 5.8 1.2 1.4 3.3 3.4 6.6 6.3s5.3 4.8 5.8 5.3c23.1 21.1 41.3 40.2 54.7 57.1 13 16.9 19.6 29.1 19.6 36.6 0 10.7-8.3 17.4-24.9 20-8.5 1.4-17.1 1.9-25.9 1.9-6.8 0-13.8-.5-21-1.5-6.5-.7-12.5-1-18.1-1-8.5 0-15.8.9-22 2.4h-2.9c-21.5-3.6-44.1-18.9-67.8-45.9-1.4-1.4-4.1-4.7-8.3-10-4.3-5.3-7.8-9.5-10.7-12.5-2.9-2.9-6.7-5.7-11.2-8.3-4.6-2.6-8.9-3.6-13.1-2.9-7.5 1.4-12.5 6-14.9 14.1-2.4 8.2-3.9 17.8-4.4 29-.5 11.2-2 19.2-4.7 23.6-4.3 7.8-17.1 11.7-38.5 11.7-9.1 0-19.8-.7-32.2-1.9-25.4-2.6-48.4-9.1-69.1-19.6s-37-21.4-49-33c-12.1-11.6-25.2-26.6-39.5-45.1-34.4-42.7-66.4-95-96.7-156.5-1-1.9-2.8-5.6-5.3-11-2.5-5.3-4.6-9.5-5.8-12.5-1.4-2.9-2.8-6.7-4.7-11.5s-3.1-9.2-3.9-13.6c-.8-4.3-1.3-8.7-1.3-12.9z"/></svg>