<?xml version="1.0" encoding="utf-8"?>
<!-- Generator: Adobe Illustrator 17.1.0, SVG Export Plug-In . SVG Version: 6.00 Build 0)  -->
<!DOCTYPE svg PUBLIC "-//W3C//DTD SVG 1.1//EN" "http://www.w3.org/Graphics/SVG/1.1/DTD/svg11.dtd">
<svg version="1.1" id="Layer_1" xmlns="http://www.w3.org/2000/svg" xmlns:xlink="http://www.w3.org/1999/xlink" x="0px" y="0px"
	 viewBox="0 0 93 93" enable-background="new 0 0 93 93" xml:space="preserve">
<path d="M84.3,8.7c-3.8-3.8-11-3-21.1,2.2c-1.7,0.9-3.4,1.9-5.1,2.9c-3.6-1.3-7.5-2-11.5-2C28,11.9,12.9,27,12.9,45.6
	c0,3.9,0.7,7.7,1.9,11.2c-1.4,2.2-2.7,4.4-3.8,6.5c-5.2,10-6,17.3-2.3,21.1c1.6,1.6,3.7,2.3,6.5,2.3c3.5,0,8-1.3,13.2-3.9
	c1-0.5,1.4-1.7,0.9-2.7s-1.7-1.4-2.7-0.9c-7.3,3.6-12.9,4.5-15.1,2.3c-2.3-2.3-1.2-8.4,3-16.4c0.7-1.3,1.4-2.6,2.2-3.9
	C22.4,72,33.6,79.3,46.6,79.3c18.6,0,33.7-15.1,33.7-33.7c0-12.8-7.2-24-17.7-29.7c0.9-0.5,1.7-1,2.5-1.4c7.9-4.2,14.1-5.3,16.4-3
	c1.9,1.9,1.5,6.5-1.2,12.6c-0.4,1,0,2.2,1,2.6c1,0.4,2.2,0,2.6-1C88.3,15.7,86.6,11,84.3,8.7z M16.9,45.6
	c0-16.4,13.3-29.7,29.7-29.7c2.5,0,4.9,0.3,7.2,0.9c-6.6,4.6-13.5,10.4-20.1,17c-6.2,6.2-11.6,12.6-16,18.8
	C17.2,50.3,16.9,48,16.9,45.6z M76.3,45.6C76.3,62,63,75.3,46.6,75.3c-12.3,0-22.8-7.5-27.4-18.1c4.5-6.7,10.5-13.9,17.3-20.7
	c7.3-7.3,14.9-13.5,22-18.2C69,23,76.3,33.5,76.3,45.6z"/>
</svg>
