<?xml version="1.0" encoding="utf-8"?>
<!-- Generator: Adobe Illustrator 17.1.0, SVG Export Plug-In . SVG Version: 6.00 Build 0)  -->
<!DOCTYPE svg PUBLIC "-//W3C//DTD SVG 1.1//EN" "http://www.w3.org/Graphics/SVG/1.1/DTD/svg11.dtd">
<svg version="1.1" id="Layer_1" xmlns="http://www.w3.org/2000/svg" xmlns:xlink="http://www.w3.org/1999/xlink" x="0px" y="0px"
	 viewBox="0 0 101.9 92.9" enable-background="new 0 0 101.9 92.9" xml:space="preserve">
<g>
	<path d="M51.9,51.1h-0.2c-7.5,0-13.6,6.1-13.6,13.6v10.9h27.5V64.7C65.5,57.2,59.4,51.1,51.9,51.1z M62.5,72.7H41v-7.9
		c0-5.9,4.8-10.6,10.6-10.6h0.2c5.9,0,10.6,4.8,10.6,10.6V72.7z"/>
	<path d="M94.8,84.8H83.6V44.4c0,0,0.1,0,0.1,0c2.9,0,5.5-1.5,7-3.9l0.1-0.1c1.1-1.9,1.5-4.1,1-6.2c-0.5-2.1-1.8-3.9-3.7-5L54.6,8.8
		c-1.3-0.8-2.7-1.2-4.2-1.2c0,0,0,0,0,0l-0.1,0l-0.1,1.5l-0.1-1.5H50c-1.5,0-3,0.4-4.2,1.2L27.3,20.1V6.6c0-0.8-0.7-1.5-1.5-1.5
		s-1.5,0.7-1.5,1.5v15.4l-11.9,7.2c-1.9,1.1-3.2,2.9-3.7,5c-0.5,2.1-0.2,4.3,1,6.2l0.1,0.1c1.5,2.5,4.1,3.9,7,3.9c0.3,0,0.7,0,1-0.1
		v40.4H7.1c-0.8,0-1.5,0.7-1.5,1.5s0.7,1.5,1.5,1.5h10.6h65.9h11.2c0.8,0,1.5-0.7,1.5-1.5S95.6,84.8,94.8,84.8z M12.3,38.9l-0.1-0.1
		c-0.7-1.2-0.9-2.6-0.6-3.9c0.3-1.3,1.2-2.5,2.3-3.2l33.4-20.3c0.8-0.5,1.7-0.7,2.8-0.7l0.3,0c1,0,1.9,0.3,2.7,0.7l33.4,20.3
		c1.2,0.7,2,1.9,2.3,3.2c0.3,1.3,0.1,2.7-0.6,3.9l-0.1,0.1c-0.9,1.6-2.6,2.5-4.4,2.5c-0.6,0-1.1-0.1-1.6-0.3L50.7,21.9l-0.2,0.1
		l-0.2-0.1L19.4,40.7c-0.8,0.5-1.7,0.8-2.7,0.8C14.9,41.4,13.2,40.5,12.3,38.9z M20.7,84.8v-41l29.7-18.2l29,17.7
		c0.4,0.2,0.8,0.4,1.1,0.6v41H20.7z"/>
</g>
</svg>
