<?xml version="1.0" encoding="utf-8"?>
<!-- Generator: Adobe Illustrator 17.1.0, SVG Export Plug-In . SVG Version: 6.00 Build 0)  -->
<!DOCTYPE svg PUBLIC "-//W3C//DTD SVG 1.1//EN" "http://www.w3.org/Graphics/SVG/1.1/DTD/svg11.dtd">
<svg version="1.1" id="Layer_1" xmlns="http://www.w3.org/2000/svg" xmlns:xlink="http://www.w3.org/1999/xlink" x="0px" y="0px"
	 viewBox="0 0 70.5 100.1" enable-background="new 0 0 70.5 100.1" xml:space="preserve">
<g>
	<g>
		<path d="M35.2,90.6c-0.5,0-1-0.2-1.4-0.5C32.8,89,6.7,64.4,6.7,38.1c0-15.7,12.8-28.5,28.5-28.5s28.5,12.8,28.5,28.5
			c0,27.2-26,51-27.2,52C36.2,90.4,35.7,90.6,35.2,90.6z M35.2,13.6c-13.5,0-24.5,11-24.5,24.5c0,21.3,19.2,42.3,24.5,47.7
			c5.3-5.3,24.5-25.7,24.5-47.7C59.7,24.6,48.7,13.6,35.2,13.6z"/>
	</g>
	<g>
		<path d="M35.2,48.2c-6.1,0-11-5-11-11s4.9-11,11-11s11,5,11,11S41.3,48.2,35.2,48.2z M35.2,30.1c-3.9,0-7,3.2-7,7s3.2,7,7,7
			c3.9,0,7-3.2,7-7S39.1,30.1,35.2,30.1z"/>
	</g>
</g>
</svg>
