<?xml version="1.0" encoding="utf-8"?>
<!-- Generator: Adobe Illustrator 17.1.0, SVG Export Plug-In . SVG Version: 6.00 Build 0)  -->
<!DOCTYPE svg PUBLIC "-//W3C//DTD SVG 1.1//EN" "http://www.w3.org/Graphics/SVG/1.1/DTD/svg11.dtd">
<svg version="1.1" id="Layer_1" xmlns="http://www.w3.org/2000/svg" xmlns:xlink="http://www.w3.org/1999/xlink" x="0px" y="0px"
	 viewBox="0 0 91.8 76.9" enable-background="new 0 0 91.8 76.9" xml:space="preserve">
<g>
	<path d="M84.7,72.6C84.7,72.6,84.7,72.6,84.7,72.6H39c-18.7,0-33.9-15.2-33.9-33.9v-0.6C5.1,19.5,20.3,4.3,39,4.3h4.4
		c18.7,0,33.9,15.2,33.9,33.9v14.5c0,8.6,7.5,15.4,8.6,16.4c0.5,0.4,0.9,1,0.9,1.7C86.7,71.7,85.8,72.6,84.7,72.6z M39,8.3
		C22.5,8.3,9.1,21.7,9.1,38.1v0.6c0,16.5,13.4,29.9,29.9,29.9h40.9c-3-3.4-6.7-9.2-6.7-16V38.1c0-16.5-13.4-29.9-29.9-29.9H39z"/>
</g>
</svg>
