<?xml version="1.0" encoding="utf-8"?>
<!-- Generator: Adobe Illustrator 17.1.0, SVG Export Plug-In . SVG Version: 6.00 Build 0)  -->
<!DOCTYPE svg PUBLIC "-//W3C//DTD SVG 1.1//EN" "http://www.w3.org/Graphics/SVG/1.1/DTD/svg11.dtd">
<svg version="1.1" id="Layer_1" xmlns="http://www.w3.org/2000/svg" xmlns:xlink="http://www.w3.org/1999/xlink" x="0px" y="0px"
	 viewBox="0 0 103.6 96.2" enable-background="new 0 0 103.6 96.2" xml:space="preserve">
<path d="M95.3,23.6c0.1-1.2-0.4-2.4-1.2-3.4L83.9,9.2c-0.9-1-2.1-1.5-3.4-1.5c-1.2,0-2.3,0.4-3.2,1.2L65.9,19.4c0,0,0,0,0,0s0,0,0,0
	L13.4,67.5c-0.6,0.6-1.1,1.3-1.3,2.2L8.4,82.6C8,84,8.3,85.5,9.2,86.7c0.9,1.2,2.3,1.9,3.7,1.9c0.2,0,0.4,0,0.6,0l13.8-1.9
	c1-0.1,1.8-0.5,2.5-1.2l52.4-48.1c0,0,0,0,0,0s0,0,0,0l11.4-10.5C94.7,26,95.2,24.9,95.3,23.6z M27.3,82.5c-0.1,0.1-0.2,0.2-0.4,0.2
	L13,84.5c-0.3,0-0.6-0.2-0.6-0.3c-0.1-0.1-0.2-0.3-0.1-0.6l3.6-12.9c0-0.1,0.1-0.2,0.2-0.3l51-46.8l11.1,12.1L27.3,82.5z M91.1,23.9
	l-10,9.1L70.1,21l10-9.1c0.2-0.1,0.3-0.2,0.5-0.2c0.1,0,0.3,0,0.5,0.2L91.1,23c0.2,0.2,0.2,0.4,0.2,0.5
	C91.3,23.5,91.3,23.7,91.1,23.9z"/>
</svg>
