<?xml version="1.0" encoding="utf-8"?>
<!-- Generator: Adobe Illustrator 17.1.0, SVG Export Plug-In . SVG Version: 6.00 Build 0)  -->
<!DOCTYPE svg PUBLIC "-//W3C//DTD SVG 1.1//EN" "http://www.w3.org/Graphics/SVG/1.1/DTD/svg11.dtd">
<svg version="1.1" id="Layer_1" xmlns="http://www.w3.org/2000/svg" xmlns:xlink="http://www.w3.org/1999/xlink" x="0px" y="0px"
	 viewBox="0 0 99.6 94.2" enable-background="new 0 0 99.6 94.2" xml:space="preserve">
<g>
	<path d="M92.6,77.5C91.3,64,79.7,53.4,66.1,53.4H34.4C20.5,53.4,8.7,63.8,7,77.6l0,0.1c0,0.1,0,0.2,0,0.3c0,5.4,4.1,9.6,9.4,9.6
		h66.7c5.2,0,9.5-4.2,9.6-9.5C92.6,77.9,92.6,77.7,92.6,77.5z M66.1,57.4c0.8,0,1.6,0.1,2.4,0.1c-4.9,5-11.6,7.9-18.8,7.9
		c-7.1,0-13.7-2.8-18.7-7.7c1.1-0.2,2.2-0.3,3.3-0.3H66.1z M83.1,83.6H16.4c-3,0-5.4-2.4-5.4-5.5l0,0c1.1-9.1,7.4-16.5,15.7-19.4
		c5.8,6.8,14.1,10.7,23.1,10.7c9.1,0,17.5-4,23.3-10.9c8.4,2.7,14.8,10.3,15.6,19.5c0,0.1,0,0.1,0,0.2
		C88.5,81.2,86.1,83.6,83.1,83.6z"/>
	<path d="M49.7,49.7c11.9,0,21.6-9.7,21.6-21.6c0-11.9-9.7-21.6-21.6-21.6c-11.9,0-21.6,9.7-21.6,21.6
		C28.1,40.1,37.8,49.7,49.7,49.7z M49.7,10.6c9.7,0,17.6,7.9,17.6,17.6s-7.9,17.6-17.6,17.6s-17.6-7.9-17.6-17.6S40,10.6,49.7,10.6z
		"/>
</g>
</svg>
