<?xml version="1.0" encoding="utf-8"?>
<!-- Generator: Adobe Illustrator 17.1.0, SVG Export Plug-In . SVG Version: 6.00 Build 0)  -->
<!DOCTYPE svg PUBLIC "-//W3C//DTD SVG 1.1//EN" "http://www.w3.org/Graphics/SVG/1.1/DTD/svg11.dtd">
<svg version="1.1" id="Layer_1" xmlns="http://www.w3.org/2000/svg" xmlns:xlink="http://www.w3.org/1999/xlink" x="0px" y="0px"
	 viewBox="0 0 73.8 95.9" enable-background="new 0 0 73.8 95.9" xml:space="preserve">
<g>
	<path d="M62.6,41.1H18.8c0-1.9-0.1-5.8-0.1-11.6c0-9.8,8-17.8,17.8-17.8s17.8,8,17.8,17.8c0,1.1,0.9,2,2,2s2-0.9,2-2
		c0-12-9.8-21.8-21.8-21.8s-21.8,9.8-21.8,21.8c0,5.8,0,9.7,0.1,11.6h-3.6c-2.9,0-5.2,2.3-5.2,5.2v36.5c0,2.9,2.3,5.2,5.2,5.2h51.4
		c2.9,0,5.2-2.3,5.2-5.2V46.4C67.9,43.5,65.5,41.1,62.6,41.1z M63.9,82.9c0,0.7-0.6,1.2-1.2,1.2H11.2c-0.7,0-1.2-0.6-1.2-1.2V46.4
		c0-0.7,0.5-1.2,1.2-1.2h51.4c0.7,0,1.2,0.5,1.2,1.2V82.9z"/>
	<path d="M36.4,51.9c-4.5,0-8.1,3.6-8.1,8.1c0,3.7,2.6,6.9,6,7.8v4c0,1.1,0.9,2,2,2s2-0.9,2-2v-4c3.5-0.9,6.2-4.1,6.2-7.8
		C44.5,55.6,40.8,51.9,36.4,51.9z M36.4,64.1c-2.3,0-4.1-1.8-4.1-4.1c0-2.3,1.8-4.1,4.1-4.1c2.3,0,4.1,1.8,4.1,4.1
		C40.5,62.3,38.6,64.1,36.4,64.1z"/>
</g>
</svg>
