<?xml version="1.0" encoding="utf-8"?>
<!-- Generator: Adobe Illustrator 17.1.0, SVG Export Plug-In . SVG Version: 6.00 Build 0)  -->
<!DOCTYPE svg PUBLIC "-//W3C//DTD SVG 1.1//EN" "http://www.w3.org/Graphics/SVG/1.1/DTD/svg11.dtd">
<svg version="1.1" id="Layer_1" xmlns="http://www.w3.org/2000/svg" xmlns:xlink="http://www.w3.org/1999/xlink" x="0px" y="0px"
	 viewBox="0 0 104.6 91.4" enable-background="new 0 0 104.6 91.4" xml:space="preserve">
<path d="M93.3,15.3L81.7,8.4c-0.8-0.5-1.7-0.7-2.6-0.7c-2.9,0-5.2,2.3-5.2,5.2v4.7H39.9c-17.2,0-31.1,14-31.1,31.1v3.9
	c0,17.2,14,31.1,31.1,31.1c1.1,0,2-0.9,2-2s-0.9-2-2-2c-15,0-27.1-12.2-27.1-27.1v-3.9c0-15,12.2-27.1,27.1-27.1h33.9v4.7
	c0,2.9,2.3,5.2,5.2,5.2h0c0.9,0,1.8-0.2,2.5-0.7l11.6-6.6c1.6-0.9,2.6-2.6,2.6-4.5C95.9,17.9,94.9,16.2,93.3,15.3z M91.2,20.7
	l-11.6,6.6c-0.2,0.1-0.4,0.2-0.6,0.2c-0.6,0-1.2-0.4-1.2-1.2v-6.7c0,0,0,0,0,0s0,0,0,0v-6.7c0-0.7,0.6-1.2,1.2-1.2
	c0.2,0,0.4,0.1,0.6,0.2l11.6,6.9c0.5,0.3,0.6,0.8,0.6,1S91.8,20.4,91.2,20.7z"/>
</svg>
