<?xml version="1.0" encoding="utf-8"?>
<!-- Generator: Adobe Illustrator 17.1.0, SVG Export Plug-In . SVG Version: 6.00 Build 0)  -->
<!DOCTYPE svg PUBLIC "-//W3C//DTD SVG 1.1//EN" "http://www.w3.org/Graphics/SVG/1.1/DTD/svg11.dtd">
<svg version="1.1" id="Layer_1" xmlns="http://www.w3.org/2000/svg" xmlns:xlink="http://www.w3.org/1999/xlink" x="0px" y="0px"
	 viewBox="0 0 92.7 142.9" enable-background="new 0 0 92.7 142.9" xml:space="preserve">
<g>
	<g>
		<path fill="#6D6E71" d="M46.7,133.6H46c-22,0-40-17.9-40-40V49.3c0-22,17.9-40,40-40h0.7c22,0,40,17.9,40,40v44.4
			C86.7,115.7,68.8,133.6,46.7,133.6z M46,18.3c-17.1,0-31,13.9-31,31v44.4c0,17.1,13.9,31,31,31h0.7c17.1,0,31-13.9,31-31V49.3
			c0-17.1-13.9-31-31-31H46z"/>
	</g>
</g>
<g>
	<path fill="#FFFFFF" d="M46.8,65.1h-0.1c-3.3,0-5.9-2.6-5.9-5.9v-0.2c0-3.3,2.6-5.9,5.9-5.9h0.1c3.3,0,5.9,2.6,5.9,5.9v0.2
		C52.7,62.4,50.1,65.1,46.8,65.1z"/>
	<path fill="#FFFFFF" d="M46.8,68.1h-0.1c-4.9,0-8.9-4-8.9-8.9v-0.2c0-4.9,4-8.9,8.9-8.9h0.1c4.9,0,8.9,4,8.9,8.9v0.2
		C55.7,64.1,51.7,68.1,46.8,68.1z M46.7,56c-1.6,0-2.9,1.3-2.9,2.9v0.2c0,1.6,1.3,2.9,2.9,2.9h0.1c1.6,0,2.9-1.3,2.9-2.9v-0.2
		c0-1.6-1.3-2.9-2.9-2.9H46.7z"/>
</g>
</svg>
