<?xml version="1.0" encoding="utf-8"?>
<!-- Generator: Adobe Illustrator 17.1.0, SVG Export Plug-In . SVG Version: 6.00 Build 0)  -->
<!DOCTYPE svg PUBLIC "-//W3C//DTD SVG 1.1//EN" "http://www.w3.org/Graphics/SVG/1.1/DTD/svg11.dtd">
<svg version="1.1" id="Layer_1" xmlns="http://www.w3.org/2000/svg" xmlns:xlink="http://www.w3.org/1999/xlink" x="0px" y="0px"
	 viewBox="0 0 94.1 94.7" enable-background="new 0 0 84.1 84.7" xml:space="preserve">
<path fill="#FFFFFF" d="M51.9,7.3C32.7,7.3,17,23,17,42.2c0,7.6,2.4,14.6,6.5,20.3L9,77.2c-2.3,2.3-2.3,6.1,0,8.4l0.1,0.1c2.3,2.3,6.1,2.3,8.4,0
	L32.1,71c5.6,3.9,12.5,6.2,19.8,6.2c19.3,0,34.9-15.7,34.9-34.9S71.2,7.3,51.9,7.3z M51.9,71.2C36,71.2,23,58.2,23,42.2
	s13-28.9,28.9-28.9s28.9,13,28.9,28.9S67.9,71.2,51.9,71.2z"/>
</svg>
