<?xml version="1.0" encoding="utf-8"?>
<!-- Generator: Adobe Illustrator 21.1.0, SVG Export Plug-In . SVG Version: 6.00 Build 0)  -->
<svg version="1.1" id="Layer_1" xmlns="http://www.w3.org/2000/svg" xmlns:xlink="http://www.w3.org/1999/xlink" x="0px" y="0px"
	 viewBox="0 0 22.8 23.5" style="enable-background:new 0 0 22.8 23.5;" xml:space="preserve">
<g>
	<g>
		<path d="M21.6,8.1l0-0.1c0,0,0,0,0-0.1l-2.2-6.1c-0.1-0.3-0.4-0.5-0.7-0.5H4.4c-0.3,0-0.6,0.2-0.7,0.5L1.5,7.8c0,0,0,0.1,0,0.1
			L1.4,8.2c0,0.1,0,0.1,0,0.2C1.3,8.6,1.3,8.8,1.3,9.1c0,1.3,0.8,2.5,2,2.9v9c0,0.4,0.3,0.7,0.7,0.7h15.2c0.4,0,0.7-0.3,0.7-0.7
			v-9.1c1-0.5,1.8-1.6,1.8-2.8c0-0.2,0-0.4-0.1-0.7C21.6,8.3,21.6,8.2,21.6,8.1z M18.5,20.2H4.8v-8.1c0,0,0.1,0,0.1,0
			C5.7,12,6.3,11.6,6.8,11c0.6,0.7,1.4,1.1,2.4,1.1s1.8-0.4,2.4-1.1c0.6,0.7,1.4,1.1,2.4,1.1c0.9,0,1.8-0.4,2.4-1.1
			c0.4,0.5,0.9,0.8,1.6,1c0,0,0,0,0.1,0c0.1,0,0.1,0,0.2,0.1c0,0,0.1,0,0.1,0c0.1,0,0.1,0,0.2,0c0,0,0.1,0,0.1,0
			C18.5,12.2,18.5,20.2,18.5,20.2z M19.1,10.7C19.1,10.7,19.1,10.7,19.1,10.7c-0.1,0-0.2,0-0.2,0.1c-0.1,0-0.2,0-0.2,0
			c-0.1,0-0.2,0-0.3,0c-0.1,0-0.2-0.1-0.2-0.1c0,0,0,0,0,0c-0.6-0.2-1-0.8-1-1.4c0,0,0,0,0,0c0,0,0-0.1,0-0.1c0-0.4-0.3-0.7-0.7-0.7
			c-0.4,0-0.7,0.3-0.7,0.7c0,0,0,0.1,0,0.1v0c-0.1,0.6-0.5,1.2-1,1.4c0,0,0,0,0,0c-0.1,0-0.2,0.1-0.3,0.1c-0.1,0-0.2,0-0.3,0
			c-0.1,0-0.2,0-0.3,0c-0.1,0-0.2-0.1-0.2-0.1c0,0,0,0,0,0c-0.6-0.2-1-0.8-1-1.4c0,0,0,0,0,0c0,0,0-0.1,0-0.1c0-0.4-0.3-0.7-0.7-0.7
			c-0.4,0-0.7,0.3-0.7,0.7c0,0,0,0.1,0,0.1v0c-0.1,0.6-0.5,1.2-1,1.4c0,0,0,0,0,0c-0.1,0-0.2,0.1-0.3,0.1c-0.1,0-0.2,0-0.3,0
			c-0.1,0-0.2,0-0.3,0c-0.1,0-0.2-0.1-0.3-0.1c0,0,0,0,0,0c-0.6-0.2-1-0.8-1-1.4c0,0,0,0,0,0c0,0,0-0.1,0-0.1c0-0.4-0.3-0.7-0.7-0.7
			S6.1,8.7,6.1,9.1c0,0,0,0.1,0,0.1v0C6,9.8,5.6,10.4,5,10.6c0,0,0,0,0,0c-0.1,0-0.2,0.1-0.2,0.1c-0.1,0-0.2,0-0.3,0
			c-0.1,0-0.1,0-0.2,0c0,0,0,0-0.1,0c0,0,0,0-0.1,0c-0.8-0.1-1.4-0.8-1.4-1.6c0-0.1,0-0.3,0.1-0.5c0,0,0-0.1,0-0.1l2.1-5.8h13.2
			l2.1,5.7c0,0,0,0,0,0.1l0,0.1c0,0,0,0.1,0,0.1c0.1,0.2,0.1,0.3,0.1,0.5C20.3,9.8,19.8,10.4,19.1,10.7L19.1,10.7z"/>
	</g>
</g>
</svg>
