<?xml version="1.0" encoding="utf-8"?>
<!-- Generator: Adobe Illustrator 17.1.0, SVG Export Plug-In . SVG Version: 6.00 Build 0)  -->
<!DOCTYPE svg PUBLIC "-//W3C//DTD SVG 1.1//EN" "http://www.w3.org/Graphics/SVG/1.1/DTD/svg11.dtd">
<svg version="1.1" id="Layer_1" xmlns="http://www.w3.org/2000/svg" xmlns:xlink="http://www.w3.org/1999/xlink" x="0px" y="0px"
	 viewBox="0 0 97.6 99.8" enable-background="new 0 0 97.6 99.8" xml:space="preserve">
<g>
	<circle fill="#FFFFFF" cx="28.5" cy="88.3" r="5.1"/>
	<circle fill="#FFFFFF" cx="76.5" cy="88.3" r="5.1"/>
	<path fill="#FFFFFF" d="M87.4,47.2l3.9-25.6c0.1-0.8-0.1-1.7-0.6-2.3c-0.5-0.7-1.3-1.1-2.2-1.1l-66.9-3.5c-0.6-2.6-3-8.4-12.5-8.4
		c-1.7,0-3,1.3-3,3s1.3,3,3,3c5.8,0,6.4,2.8,6.7,3.8c0.1,0.2,0.2,0.9,0.4,1.9c0,0.1,0,0.1,0,0.2l7.4,39.1c0.2,1,0.4,2,0.6,3
		c0.7,3.8,1.2,6.6,1.4,7.6c1.1,5.7,5.1,9.4,10.1,9.4h49c1.7,0,3-1.3,3-3s-1.3-3-3-3h-49c-2.1,0-3.7-1.6-4.2-4.5
		c-0.2-1-0.7-3.7-1.4-7.4L85,49.7C86.3,49.5,87.3,48.5,87.4,47.2z M81.8,44.2L29,53.3c-2.5-13.4-4.8-25.6-6.2-32.6l62.1,3.2
		L81.8,44.2z"/>
</g>
</svg>
