<?xml version="1.0" encoding="utf-8"?>
<!-- Generator: Adobe Illustrator 17.1.0, SVG Export Plug-In . SVG Version: 6.00 Build 0)  -->
<!DOCTYPE svg PUBLIC "-//W3C//DTD SVG 1.1//EN" "http://www.w3.org/Graphics/SVG/1.1/DTD/svg11.dtd">
<svg version="1.1" id="Layer_1" xmlns="http://www.w3.org/2000/svg" xmlns:xlink="http://www.w3.org/1999/xlink" x="0px" y="0px"
	 viewBox="0 0 95 95" enable-background="new 0 0 95 95" xml:space="preserve">
<g>
	<path d="M47.5,7C25.2,7,7,25.2,7,47.5C7,69.8,25.2,88,47.5,88C69.8,88,88,69.8,88,47.5C88,25.2,69.8,7,47.5,7z M47.5,84
		C27.4,84,11,67.6,11,47.5S27.4,11,47.5,11S84,27.4,84,47.5S67.6,84,47.5,84z"/>
	<path d="M49.5,15.5c-1.1,0-2,0.9-2,2v28.9H27.1c-1.1,0-2,0.9-2,2s0.9,2,2,2h22.4c1.1,0,2-0.9,2-2V17.5
		C51.5,16.4,50.6,15.5,49.5,15.5z"/>
</g>
</svg>
