<?xml version="1.0" encoding="utf-8"?>
<!-- Generator: Adobe Illustrator 17.1.0, SVG Export Plug-In . SVG Version: 6.00 Build 0)  -->
<!DOCTYPE svg PUBLIC "-//W3C//DTD SVG 1.1//EN" "http://www.w3.org/Graphics/SVG/1.1/DTD/svg11.dtd">
<svg version="1.1" id="Layer_1" xmlns="http://www.w3.org/2000/svg" xmlns:xlink="http://www.w3.org/1999/xlink" x="0px" y="0px"
	 viewBox="0 0 42.4 62.4" enable-background="new 0 0 42.4 62.4" xml:space="preserve">
<path d="M37.4,51.6c-1,0.6-2.4,1.2-4.2,1.7c-1.8,0.5-4.1,0.8-6.9,0.8c-4.2,0-7.5-1.1-9.8-3.2c-2.2-2.2-3.3-5.1-3.3-9
	c0-0.2,0-0.4,0-0.6h21.7c1.1,0,2-0.9,2-2s-0.9-2-2-2h-21c0.2-0.4,0.3-0.8,0.5-1.2c0.9-1.7,2.1-3.3,3.4-4.7c1.1-1.1,2.2-2,3.4-3h13.6
	c1.1,0,2-0.9,2-2s-0.9-2-2-2h-8.3c0.3-0.2,0.6-0.5,0.9-0.7c1.6-1.3,3-2.7,4.1-4.2c1.3-1.7,1.9-3.7,1.9-5.9c0-2.6-0.9-4.7-2.5-6.4
	c-1.7-1.7-4.2-2.6-7.5-2.6c-2.4,0-4.5,0.3-6.4,0.8c-1.9,0.5-3.3,1.1-4.4,1.7l2.1,3.4c0.7-0.5,1.9-0.9,3.4-1.3
	c1.5-0.4,3.3-0.6,5.4-0.6c2.2,0,3.7,0.5,4.6,1.4c0.9,1,1.4,2.1,1.4,3.6c0,1.3-0.4,2.5-1.1,3.5c-0.9,1.2-2.1,2.4-3.4,3.5
	c-1.5,1.2-3.1,2.4-4.8,3.6c-0.1,0.1-0.2,0.1-0.3,0.2H5c-1.1,0-2,0.9-2,2s0.9,2,2,2h10.3c0,0-0.1,0.1-0.2,0.1c-1.6,1.6-3,3.5-4.1,5.6
	c-0.5,1-0.9,2-1.2,3.1H5c-1.1,0-2,0.9-2,2s0.9,2,2,2h4.3c0,0.2,0,0.4,0,0.6c0,5,1.5,9,4.6,11.9c3,2.9,7.2,4.3,12.5,4.3
	c3.2,0,5.9-0.3,8-0.9c2.1-0.6,3.8-1.3,5.2-2.1L37.4,51.6z"/>
</svg>
